STARTFONT 2.1
COMMENT This font was automatically resized by bdfresize-1.4
COMMENT   mag_x = 7/12, mag_y = 7/12, blackness = 3
FONT -tomabechi-proportional-medium-r-normal--16-160-75-75-P-122-MuleTibetan-2
SIZE 16 75 75
FONTBOUNDINGBOX 27 31 -3 -12
STARTPROPERTIES 26
FOUNDRY "tomabechi"
FAMILY_NAME "proportional"
WEIGHT_NAME "medium"
SLANT "r"
SETWIDTH_NAME "normal"
ADD_STYLE_NAME ""
PIXEL_SIZE 16
POINT_SIZE 160
RESOLUTION_X 75
RESOLUTION_Y 75
SPACING "P"
AVERAGE_WIDTH 122
CHARSET_REGISTRY "MuleTibetan"
CHARSET_ENCODING "2"
STRIKEOUT_ASCENT 16
STRIKEOUT_DESCENT 9
X_HEIGHT 13
FACE_NAME "Mule Tibetan (16 point)"
COPYRIGHT "Public Domain, original design by Toru Tomabechi 1999"
_XMBDFED_INFO "Edited with xmbdfed 4.3."
WEIGHT 10
RESOLUTION 75
QUAD_WIDTH 14
DEFAULT_CHAR 8481
FONT_ASCENT 18
FONT_DESCENT 8
ENDPROPERTIES
CHARS 349
STARTCHAR char8481
ENCODING 8481
SWIDTH 6500 0
DWIDTH 13 0
BBX 12 11 1 1
BITMAP
FFF0
8010
8010
8010
8010
8010
8010
8010
8010
8010
FFF0
ENDCHAR
STARTCHAR char9040
ENCODING 8482
SWIDTH 6000 0
DWIDTH 12 0
BBX 9 4 1 9
BITMAP
FF80
FF80
0800
0800
ENDCHAR
STARTCHAR char105
ENCODING 8496
SWIDTH 7000 0
DWIDTH 14 0
BBX 13 18 1 1
BITMAP
0878
15F0
0BC0
F200
3C00
0400
DF60
DF60
8E20
9B20
9D20
8DA0
84A0
C4A0
7C60
3860
0020
0020
ENDCHAR
STARTCHAR char105
ENCODING 8497
SWIDTH 6000 0
DWIDTH 12 0
BBX 11 12 1 1
BITMAP
DF00
DF00
8E00
9B00
9D00
8D80
8480
C480
7C40
3840
0020
0020
ENDCHAR
STARTCHAR char8498
ENCODING 8498
SWIDTH 6000 0
DWIDTH 12 0
BBX 11 23 1 -5
BITMAP
0800
0800
1000
1400
1C00
4100
3E40
00A0
3CA0
7C40
CC00
8440
84A0
88A0
DC40
5E00
0200
2100
1180
09C0
0460
0660
03C0
ENDCHAR
STARTCHAR char8498
ENCODING 8499
SWIDTH 6000 0
DWIDTH 12 0
BBX 11 23 1 -5
BITMAP
0800
0800
1000
1400
1C00
4100
3E40
00A0
3CA0
7C40
CC00
84E0
8400
8840
DCA0
5EA0
0240
2100
1180
09C0
0460
0660
03C0
ENDCHAR
STARTCHAR char8500
ENCODING 8500
SWIDTH 9500 0
DWIDTH 19 0
BBX 19 13 1 0
BITMAP
000F80
001FC0
F038E0
0C30E0
023060
018860
00E0E0
003FC0
001F80
008020
0071C0
003F80
001F00
ENDCHAR
STARTCHAR char8500
ENCODING 8501
SWIDTH 5500 0
DWIDTH 11 0
BBX 11 13 0 0
BITMAP
0F80
1FC0
38E0
30E0
3060
8860
60E0
3FC0
1F80
8020
71C0
3F80
1F00
ENDCHAR
STARTCHAR char8500
ENCODING 8502
SWIDTH 9500 0
DWIDTH 19 0
BBX 19 22 1 -9
BITMAP
000F80
001FC0
F038E0
0C30E0
023060
018860
00E0E0
003FC0
001F80
008020
0071C0
003F80
001F00
000000
001F00
000E00
000400
000400
000400
000400
000400
000400
ENDCHAR
STARTCHAR char8503
ENCODING 8503
SWIDTH 12500 0
DWIDTH 25 0
BBX 25 11 -1 2
BITMAP
001E1080
003F9080
F831D680
0420D680
0210D080
01C1D080
00FFD080
003F9680
001F1680
00001080
00001080
ENDCHAR
STARTCHAR char8504
ENCODING 8504
SWIDTH 4500 0
DWIDTH 9 0
BBX 7 22 1 -8
BITMAP
02
02
72
92
9C
80
44
28
54
28
10
00
10
10
10
10
10
10
10
10
10
10
ENDCHAR
STARTCHAR char8505
ENCODING 8505
SWIDTH 5500 0
DWIDTH 11 0
BBX 10 18 1 -5
BITMAP
1E00
3F00
6380
C180
8180
0300
3E00
7C00
8600
3200
7D00
8580
0280
0240
0140
0140
0080
0080
ENDCHAR
STARTCHAR char8506
ENCODING 8506
SWIDTH 7000 0
DWIDTH 14 0
BBX 13 20 1 -7
BITMAP
03C0
87E0
8C70
9830
9030
8060
87C0
8F80
90C0
8640
8FA0
90B0
8050
8048
8028
8028
8010
C010
6008
3FF8
ENDCHAR
STARTCHAR char58
ENCODING 8507
SWIDTH 2500 0
DWIDTH 5 0
BBX 3 3 1 10
BITMAP
E0
E0
40
ENDCHAR
STARTCHAR char58
ENCODING 8508
SWIDTH 2500 0
DWIDTH 5 0
BBX 3 3 1 10
BITMAP
E0
E0
40
ENDCHAR
STARTCHAR char59
ENCODING 8509
SWIDTH 1500 0
DWIDTH 3 0
BBX 2 21 1 -8
BITMAP
C0
C0
C0
C0
C0
C0
40
40
40
40
40
40
40
40
40
40
40
40
40
40
40
ENDCHAR
STARTCHAR char60
ENCODING 8510
SWIDTH 4000 0
DWIDTH 8 0
BBX 7 21 1 -8
BITMAP
C6
C6
C6
C6
C6
C6
42
42
42
42
42
42
42
42
42
42
42
42
42
42
42
ENDCHAR
STARTCHAR char61
ENCODING 8511
SWIDTH 2500 0
DWIDTH 5 0
BBX 3 21 1 -8
BITMAP
E0
40
00
40
40
40
40
40
40
40
40
40
40
40
40
40
40
40
40
40
40
ENDCHAR
STARTCHAR char62
ENCODING 8512
SWIDTH 2000 0
DWIDTH 4 0
BBX 3 21 1 -8
BITMAP
E0
40
00
40
40
00
40
40
40
40
40
40
40
40
40
40
40
40
40
40
40
ENDCHAR
STARTCHAR char63
ENCODING 8513
SWIDTH 4500 0
DWIDTH 9 0
BBX 7 21 1 -8
BITMAP
EE
44
10
10
00
10
10
10
10
10
10
10
10
10
10
10
10
10
10
10
10
ENDCHAR
STARTCHAR char8514
ENCODING 8514
SWIDTH 8000 0
DWIDTH 16 0
BBX 15 22 1 -8
BITMAP
0100
0100
0100
0200
04C0
0440
0380
0820
07C0
0000
ED6E
2548
0000
0380
0100
0100
0100
0100
0100
0100
0100
0100
ENDCHAR
STARTCHAR char8515
ENCODING 8515
SWIDTH 8500 0
DWIDTH 17 0
BBX 16 18 1 -5
BITMAP
0180
0180
0000
03C0
07E0
0C30
1818
1008
D00B
D00B
1008
1818
0C30
07E0
03C0
0000
0180
0180
ENDCHAR
STARTCHAR char64
ENCODING 8516
SWIDTH 3000 0
DWIDTH 6 0
BBX 4 13 1 0
BITMAP
60
90
90
60
00
00
F0
00
00
60
90
90
60
ENDCHAR
STARTCHAR char8517
ENCODING 8517
SWIDTH 6500 0
DWIDTH 13 0
BBX 12 15 1 -2
BITMAP
FFF0
8010
F9F0
8010
B9D0
8010
FFF0
8010
F010
3CF0
0610
0190
00D0
0070
0010
ENDCHAR
STARTCHAR char8518
ENCODING 8518
SWIDTH 6000 0
DWIDTH 12 0
BBX 10 20 1 -6
BITMAP
0040
FC40
8440
BC40
A040
BFC0
8040
FDC0
0540
0540
FD40
8140
FF40
0040
FFC0
0840
FFC0
8040
FFC0
0040
ENDCHAR
STARTCHAR char8519
ENCODING 8519
SWIDTH 8500 0
DWIDTH 17 0
BBX 15 11 1 1
BITMAP
0012
00A4
0528
0538
15F0
5710
5C90
64A0
67C0
7F00
C000
ENDCHAR
STARTCHAR char8520
ENCODING 8520
SWIDTH 4000 0
DWIDTH 8 0
BBX 11 10 -3 -4
BITMAP
0020
0620
0960
06C0
3380
4900
3600
1800
1000
E000
ENDCHAR
STARTCHAR char8521
ENCODING 8521
SWIDTH 4000 0
DWIDTH 8 0
BBX 5 8 3 -5
BITMAP
F8
70
20
20
20
20
20
20
ENDCHAR
STARTCHAR char8522
ENCODING 8522
SWIDTH 3000 0
DWIDTH 6 0
BBX 5 5 1 4
BITMAP
70
88
88
88
70
ENDCHAR
STARTCHAR char8523
ENCODING 8523
SWIDTH 6500 0
DWIDTH 13 0
BBX 12 5 1 4
BITMAP
70E0
8910
8910
8910
70E0
ENDCHAR
STARTCHAR char8524
ENCODING 8524
SWIDTH 6500 0
DWIDTH 13 0
BBX 12 11 1 2
BITMAP
0E00
1100
1100
1100
0E00
0000
70E0
8910
8910
8910
70E0
ENDCHAR
STARTCHAR char8526
ENCODING 8525
SWIDTH 4000 0
DWIDTH 8 0
BBX 7 6 1 4
BITMAP
CC
78
30
38
6C
C6
ENDCHAR
STARTCHAR char8526
ENCODING 8526
SWIDTH 7500 0
DWIDTH 15 0
BBX 14 6 1 4
BITMAP
CD98
78F0
3060
3870
6CD8
C78C
ENDCHAR
STARTCHAR char8527
ENCODING 8527
SWIDTH 7500 0
DWIDTH 15 0
BBX 14 6 1 4
BITMAP
7198
F8F0
8860
8870
F8D8
718C
ENDCHAR
STARTCHAR char48
ENCODING 8528
SWIDTH 4500 0
DWIDTH 9 0
BBX 8 9 1 4
BITMAP
1C
3E
43
81
81
C1
C3
7E
3C
ENDCHAR
STARTCHAR char49
ENCODING 8529
SWIDTH 4500 0
DWIDTH 9 0
BBX 8 12 1 1
BITMAP
3C
66
C6
C3
C3
43
03
06
04
08
10
20
ENDCHAR
STARTCHAR char50
ENCODING 8530
SWIDTH 5000 0
DWIDTH 10 0
BBX 9 13 1 0
BITMAP
1C00
3E00
6700
4300
8300
8200
3600
7C00
0C00
0600
0300
0100
0080
ENDCHAR
STARTCHAR char51
ENCODING 8531
SWIDTH 5500 0
DWIDTH 11 0
BBX 10 14 1 -1
BITMAP
1C00
3E00
4300
8300
1E00
0300
0380
3700
7C00
4600
0300
0100
0080
0040
ENDCHAR
STARTCHAR char52
ENCODING 8532
SWIDTH 5000 0
DWIDTH 10 0
BBX 9 7 1 6
BITMAP
1000
7800
C800
C700
6000
3000
1F80
ENDCHAR
STARTCHAR char53
ENCODING 8533
SWIDTH 4500 0
DWIDTH 9 0
BBX 8 9 1 4
BITMAP
80
82
82
82
C6
C6
FE
7A
21
ENDCHAR
STARTCHAR char54
ENCODING 8534
SWIDTH 6000 0
DWIDTH 12 0
BBX 11 7 1 6
BITMAP
8000
8000
8600
4F80
64C0
3E40
1E20
ENDCHAR
STARTCHAR char55
ENCODING 8535
SWIDTH 5500 0
DWIDTH 11 0
BBX 10 9 1 5
BITMAP
0040
0040
0040
0040
3840
78C0
88C0
8B80
8F00
ENDCHAR
STARTCHAR char56
ENCODING 8536
SWIDTH 5500 0
DWIDTH 11 0
BBX 10 11 1 2
BITMAP
0800
1000
3000
2000
6000
E000
FC00
0E00
0300
0180
0040
ENDCHAR
STARTCHAR char57
ENCODING 8537
SWIDTH 5000 0
DWIDTH 10 0
BBX 9 12 1 1
BITMAP
1E00
7F00
E300
C600
C800
4900
6600
3000
1800
0E00
0300
0080
ENDCHAR
STARTCHAR char49
ENCODING 8538
SWIDTH 7000 0
DWIDTH 14 0
BBX 13 13 1 0
BITMAP
1E00
3B00
3180
3FF0
70C8
90C8
0190
0180
0300
0200
0400
0800
1000
ENDCHAR
STARTCHAR char50
ENCODING 8539
SWIDTH 7000 0
DWIDTH 14 0
BBX 13 13 1 0
BITMAP
0700
0F80
19C0
10C0
3FF0
7098
8788
0F10
1B00
0180
00C0
0040
0020
ENDCHAR
STARTCHAR char51
ENCODING 8540
SWIDTH 7000 0
DWIDTH 14 0
BBX 13 14 1 -1
BITMAP
0E00
1F00
1180
0180
0780
39F0
C0C8
0D88
1F10
3300
0180
0080
0040
0020
ENDCHAR
STARTCHAR char52
ENCODING 8541
SWIDTH 7000 0
DWIDTH 14 0
BBX 13 7 1 6
BITMAP
0C00
1C40
3780
39F0
D808
0C18
07C0
ENDCHAR
STARTCHAR char53
ENCODING 8542
SWIDTH 7000 0
DWIDTH 14 0
BBX 13 10 1 3
BITMAP
1000
1080
1080
7FF0
9088
1998
1980
1FC0
0E40
0020
ENDCHAR
STARTCHAR char54
ENCODING 8543
SWIDTH 8500 0
DWIDTH 17 0
BBX 15 8 1 5
BITMAP
4000
4000
2000
2180
3FFC
7962
8F24
0710
ENDCHAR
STARTCHAR char55
ENCODING 8544
SWIDTH 7500 0
DWIDTH 15 0
BBX 14 10 1 4
BITMAP
0020
0020
0020
0020
1C20
3FE0
3C78
65C4
A38C
2000
ENDCHAR
STARTCHAR char56
ENCODING 8545
SWIDTH 7000 0
DWIDTH 14 0
BBX 13 11 1 2
BITMAP
0200
0400
0C00
0800
1F80
7E70
9F08
0198
00C0
0060
0010
ENDCHAR
STARTCHAR char57
ENCODING 8546
SWIDTH 8000 0
DWIDTH 16 0
BBX 14 12 0 1
BITMAP
0780
0FE0
1C60
1FE0
1D38
6CA4
8C4C
0600
0300
0180
0060
0010
ENDCHAR
STARTCHAR char48
ENCODING 8547
SWIDTH 7500 0
DWIDTH 15 0
BBX 14 9 1 4
BITMAP
0380
07C0
0860
1FF8
7864
982C
1860
0FC0
0780
ENDCHAR
STARTCHAR char8548
ENCODING 8548
SWIDTH 4500 0
DWIDTH 9 0
BBX 7 14 1 0
BITMAP
F8
F8
70
20
00
E0
F0
F8
0C
E2
F0
F8
0C
02
ENDCHAR
STARTCHAR char115
ENCODING 8549
SWIDTH 5000 0
DWIDTH 10 0
BBX 9 7 1 -9
BITMAP
1C00
2200
2200
1C00
C180
6300
1C00
ENDCHAR
STARTCHAR char8550
ENCODING 8550
SWIDTH 7000 0
DWIDTH 14 0
BBX 12 12 1 1
BITMAP
0600
0600
0000
0000
0000
C030
C030
0000
0000
0000
0600
0600
ENDCHAR
STARTCHAR char115
ENCODING 8551
SWIDTH 6000 0
DWIDTH 12 0
BBX 5 5 4 -8
BITMAP
70
D8
88
D8
70
ENDCHAR
STARTCHAR char8552
ENCODING 8552
SWIDTH 6000 0
DWIDTH 12 0
BBX 10 9 1 4
BITMAP
0080
0040
0040
3840
7C40
C440
CCC0
99C0
9F80
ENDCHAR
STARTCHAR char8553
ENCODING 8553
SWIDTH 7000 0
DWIDTH 14 0
BBX 4 3 10 9
BITMAP
30
70
80
ENDCHAR
STARTCHAR char8554
ENCODING 8554
SWIDTH 10000 0
DWIDTH 20 0
BBX 20 8 1 5
BITMAP
000020
E00050
187120
065A80
010900
00F820
007050
000020
ENDCHAR
STARTCHAR char8554
ENCODING 8555
SWIDTH 10000 0
DWIDTH 20 0
BBX 20 8 1 5
BITMAP
400000
A00070
48E180
15A600
090800
41F000
A0E000
400000
ENDCHAR
STARTCHAR char8556
ENCODING 8556
SWIDTH 7500 0
DWIDTH 15 0
BBX 14 27 0 -8
BITMAP
0004
000C
0038
0FE0
1C00
3000
3000
3000
3000
3000
3000
3000
3000
3000
3000
3000
3000
3000
3000
3000
3000
3000
3000
3000
3000
6000
C000
ENDCHAR
STARTCHAR char8556
ENCODING 8557
SWIDTH 7500 0
DWIDTH 15 0
BBX 14 27 0 -8
BITMAP
8000
C000
7000
1FC0
00E0
0030
0030
0030
0030
0030
0030
0030
0030
0030
0030
0030
0030
0030
0030
0030
0030
0030
0030
0030
0030
0018
000C
ENDCHAR
STARTCHAR char8558
ENCODING 8558
SWIDTH 3500 0
DWIDTH 7 0
BBX 7 14 0 -6
BITMAP
0E
18
30
60
C0
C0
80
80
80
80
80
80
80
80
ENDCHAR
STARTCHAR char8558
ENCODING 8559
SWIDTH 3500 0
DWIDTH 7 0
BBX 7 14 0 -6
BITMAP
E0
30
18
0C
06
06
02
02
02
02
02
02
02
02
ENDCHAR
STARTCHAR char65
ENCODING 8737
SWIDTH 6000 0
DWIDTH 12 0
BBX 10 16 1 -3
BITMAP
7FC0
7FC0
1CC0
1440
3240
E240
8140
0140
0040
0040
0040
0040
0040
0040
0040
0040
ENDCHAR
STARTCHAR char66
ENCODING 8738
SWIDTH 6000 0
DWIDTH 12 0
BBX 10 16 1 -3
BITMAP
7FC0
FFC0
8CC0
8840
9840
9040
9040
9F40
8FC0
80C0
8000
8000
8000
8000
8000
8000
ENDCHAR
STARTCHAR char67
ENCODING 8739
SWIDTH 6000 0
DWIDTH 12 0
BBX 10 16 1 -3
BITMAP
FFC0
FFC0
6CC0
C640
8640
E240
F240
FA40
0640
0240
0040
0040
0040
0040
0040
0040
ENDCHAR
STARTCHAR char68
ENCODING 8740
SWIDTH 6000 0
DWIDTH 12 0
BBX 10 20 1 -7
BITMAP
FFC0
FFC0
46C0
8240
F240
FA40
0640
0040
3F80
3F80
1000
2380
67C0
7CC0
38C0
0CC0
0480
0100
0200
0400
ENDCHAR
STARTCHAR char69
ENCODING 8741
SWIDTH 6000 0
DWIDTH 12 0
BBX 10 12 1 1
BITMAP
FF80
FF80
C000
C000
8000
8000
FC00
FE00
E700
0100
0080
0040
ENDCHAR
STARTCHAR char70
ENCODING 8742
SWIDTH 6000 0
DWIDTH 12 0
BBX 11 12 1 1
BITMAP
3F80
3F80
0400
0400
0700
0BC0
F0E0
6060
3060
1820
1C40
0F80
ENDCHAR
STARTCHAR char71
ENCODING 8743
SWIDTH 6000 0
DWIDTH 12 0
BBX 11 11 1 2
BITMAP
7FC0
7FC0
0400
0400
3F80
7FC0
C460
8420
8420
C460
7BC0
ENDCHAR
STARTCHAR char72
ENCODING 8744
SWIDTH 6000 0
DWIDTH 12 0
BBX 11 13 1 0
BITMAP
7FC0
7FC0
6000
4000
DF80
FF80
C000
8000
BE00
FF00
C180
00C0
0020
ENDCHAR
STARTCHAR char8745
ENCODING 8745
SWIDTH 7000 0
DWIDTH 14 0
BBX 12 11 1 0
BITMAP
FFF0
FFF0
FFF0
FFF0
FFF0
FFF0
FFF0
FFF0
FFF0
FFF0
FFF0
ENDCHAR
STARTCHAR char74
ENCODING 8746
SWIDTH 6000 0
DWIDTH 12 0
BBX 11 17 1 -4
BITMAP
3F00
7F00
C100
8300
C780
6FC0
68E0
1860
1C60
0E60
0060
00C0
0080
0180
0100
0200
0400
ENDCHAR
STARTCHAR char75
ENCODING 8747
SWIDTH 5500 0
DWIDTH 11 0
BBX 9 16 1 -3
BITMAP
7F80
7F80
0180
0180
3D80
7F00
E700
C200
C200
C000
6000
3000
1000
0800
0400
0200
ENDCHAR
STARTCHAR char76
ENCODING 8748
SWIDTH 5500 0
DWIDTH 11 0
BBX 10 13 1 0
BITMAP
FE00
FF00
C080
8180
FF80
FF00
8100
8080
8080
9F80
FFC0
E000
8000
ENDCHAR
STARTCHAR char77
ENCODING 8749
SWIDTH 5500 0
DWIDTH 11 0
BBX 10 18 1 -5
BITMAP
FF80
FF80
0300
0180
0080
1FC0
3FC0
7800
6000
C000
C000
8000
8000
8000
8000
8000
8000
8000
ENDCHAR
STARTCHAR char78
ENCODING 8750
SWIDTH 6000 0
DWIDTH 12 0
BBX 10 21 1 -8
BITMAP
7F80
7F80
0100
0080
1FC0
3FC0
7800
4000
BF80
BF80
1000
2780
6FC0
3CC0
18C0
0CC0
0580
0100
0200
0400
0800
ENDCHAR
STARTCHAR char79
ENCODING 8751
SWIDTH 5500 0
DWIDTH 11 0
BBX 9 19 1 -6
BITMAP
7F00
7F00
0800
0800
0E00
1F00
3980
7080
7080
4900
C600
8000
8000
8000
8000
8000
8000
8000
8000
ENDCHAR
STARTCHAR char75
ENCODING 8752
SWIDTH 5500 0
DWIDTH 11 0
BBX 9 16 1 -3
BITMAP
FF00
FF00
C000
C000
DE00
7F00
7380
2180
2180
0180
0300
0600
0400
0800
1000
2000
ENDCHAR
STARTCHAR char81
ENCODING 8753
SWIDTH 6000 0
DWIDTH 12 0
BBX 10 13 1 0
BITMAP
1FC0
3FC0
40C0
4040
7FC0
3FC0
3040
6040
4040
7E40
FFC0
01C0
0040
ENDCHAR
STARTCHAR char77
ENCODING 8754
SWIDTH 5500 0
DWIDTH 11 0
BBX 10 18 1 -5
BITMAP
7FC0
7FC0
3000
6000
4000
FE00
FF00
0780
0180
00C0
00C0
0040
0040
0040
0040
0040
0040
0040
ENDCHAR
STARTCHAR char83
ENCODING 8755
SWIDTH 6000 0
DWIDTH 12 0
BBX 10 21 1 -8
BITMAP
FF00
FF00
2000
4000
FC00
FE00
0700
0080
7F40
7F00
2000
4700
CF80
7DC0
30C0
18C0
0580
0100
0200
0400
0800
ENDCHAR
STARTCHAR char79
ENCODING 8756
SWIDTH 5500 0
DWIDTH 11 0
BBX 9 19 1 -6
BITMAP
7F00
7F00
0800
0800
3800
7C00
CE00
8700
8700
4900
3180
0080
0080
0080
0080
0080
0080
0080
0080
ENDCHAR
STARTCHAR char85
ENCODING 8757
SWIDTH 6000 0
DWIDTH 12 0
BBX 10 12 1 1
BITMAP
FCC0
FCC0
6040
4040
8040
8040
BC40
FE40
FF40
0140
00C0
0040
ENDCHAR
STARTCHAR char85
ENCODING 8758
SWIDTH 6000 0
DWIDTH 12 0
BBX 10 12 1 1
BITMAP
FCC0
FCC0
6040
41C0
8340
8640
BC40
FE40
FF40
0140
00C0
0040
ENDCHAR
STARTCHAR char85
ENCODING 8759
SWIDTH 6000 0
DWIDTH 12 0
BBX 10 12 1 1
BITMAP
FFC0
FFC0
6040
4040
8040
8040
BC40
FE40
FF40
0140
00C0
0040
ENDCHAR
STARTCHAR char88
ENCODING 8760
SWIDTH 6000 0
DWIDTH 12 0
BBX 10 21 1 -8
BITMAP
FFC0
FFC0
40C0
C040
F840
FC40
0740
00C0
7F80
7F80
1000
2780
6FC0
7CC0
18C0
0CC0
0480
0100
0200
0400
0800
ENDCHAR
STARTCHAR char89
ENCODING 8761
SWIDTH 6000 0
DWIDTH 12 0
BBX 10 12 1 1
BITMAP
FEC0
FEC0
1840
0840
3840
7C40
CE40
8640
8740
4940
30C0
0040
ENDCHAR
STARTCHAR char90
ENCODING 8762
SWIDTH 5500 0
DWIDTH 11 0
BBX 11 14 1 2
BITMAP
0060
00E0
0080
3F80
3F00
0400
0400
0F00
39C0
E0E0
3060
1060
18C0
0F80
ENDCHAR
STARTCHAR char71
ENCODING 8763
SWIDTH 6500 0
DWIDTH 13 0
BBX 12 14 1 2
BITMAP
0030
0070
0040
7FC0
7FC0
0400
0400
3F80
7FC0
C460
8420
8420
C460
7BC0
ENDCHAR
STARTCHAR char72
ENCODING 8764
SWIDTH 7000 0
DWIDTH 14 0
BBX 13 16 1 0
BITMAP
0018
0038
0040
7FC0
7FC0
6000
4000
DF80
FF80
C000
8000
BE00
FF00
C180
00C0
0020
ENDCHAR
STARTCHAR char93
ENCODING 8765
SWIDTH 6500 0
DWIDTH 13 0
BBX 12 24 1 -8
BITMAP
0030
0070
0040
7FC0
7FC0
4000
FF00
8000
BE00
FF00
0080
7F00
7F00
2000
4780
EFC0
7CC0
18C0
08C0
0580
0100
0200
0400
0800
ENDCHAR
STARTCHAR char94
ENCODING 8766
SWIDTH 6000 0
DWIDTH 12 0
BBX 10 13 1 0
BITMAP
71C0
F9C0
C900
8900
9980
3FC0
3FC0
1040
3840
3E40
0740
01C0
0040
ENDCHAR
STARTCHAR char95
ENCODING 8767
SWIDTH 6000 0
DWIDTH 12 0
BBX 10 18 1 -5
BITMAP
0FC0
1FC0
20C0
4E80
5F80
DB80
D180
D1C0
DBC0
6EC0
2040
0040
0040
0040
0040
0040
0040
0040
ENDCHAR
STARTCHAR char96
ENCODING 8768
SWIDTH 6000 0
DWIDTH 12 0
BBX 10 13 1 0
BITMAP
FFC0
FFC0
00C0
0040
7E40
FFC0
00C0
0040
7E40
FF40
01C0
00C0
0040
ENDCHAR
STARTCHAR char97
ENCODING 8769
SWIDTH 6000 0
DWIDTH 12 0
BBX 11 14 1 -1
BITMAP
1F00
3F80
6380
C180
8080
8080
8080
C100
6700
6F80
0CC0
0040
0020
0020
ENDCHAR
STARTCHAR char98
ENCODING 8770
SWIDTH 6000 0
DWIDTH 12 0
BBX 11 12 1 1
BITMAP
CE60
CE60
8420
8420
8420
8620
CF20
FFA0
78E0
0060
0020
0020
ENDCHAR
STARTCHAR char99
ENCODING 8771
SWIDTH 6500 0
DWIDTH 13 0
BBX 12 13 1 0
BITMAP
7F80
7F80
0C00
0400
0400
3C00
7E00
FF00
8180
00C0
0060
0020
0010
ENDCHAR
STARTCHAR char100
ENCODING 8772
SWIDTH 6000 0
DWIDTH 12 0
BBX 10 12 1 1
BITMAP
3CC0
7CC0
C440
8440
8440
8440
C840
5E40
1F40
01C0
0040
0040
ENDCHAR
STARTCHAR char101
ENCODING 8773
SWIDTH 6000 0
DWIDTH 12 0
BBX 11 18 1 -5
BITMAP
07E0
0FE0
0C60
0820
0820
0C60
6BE0
F820
F820
0420
0020
0020
0020
0020
0020
0020
0020
0020
ENDCHAR
STARTCHAR char101
ENCODING 8774
SWIDTH 6000 0
DWIDTH 12 0
BBX 11 18 1 -5
BITMAP
FC00
FE00
C600
8200
8200
C600
FAC0
83E0
83E0
8400
8000
8000
8000
8000
8000
8000
8000
8000
ENDCHAR
STARTCHAR char103
ENCODING 8775
SWIDTH 6000 0
DWIDTH 12 0
BBX 10 11 1 2
BITMAP
FCC0
FCC0
7840
6C40
8640
C340
F1C0
F8C0
0C40
0640
0040
ENDCHAR
STARTCHAR char104
ENCODING 8776
SWIDTH 6000 0
DWIDTH 12 0
BBX 11 17 1 -4
BITMAP
7FC0
7FC0
3000
2000
4380
E7C0
7CE0
3860
1860
0860
0840
00C0
0180
0100
0200
0400
0800
ENDCHAR
STARTCHAR char105
ENCODING 8777
SWIDTH 6000 0
DWIDTH 12 0
BBX 11 12 1 1
BITMAP
DF60
DF60
8E20
9B20
9D20
8DA0
84A0
C4A0
7C60
3860
0020
0020
ENDCHAR
STARTCHAR char106
ENCODING 8778
SWIDTH 7000 0
DWIDTH 14 0
BBX 12 19 1 -6
BITMAP
7FE0
7FE0
0E60
3220
6320
C120
0120
0020
7E20
7F20
6180
4080
6180
7E80
40F0
41E0
4000
4000
4000
ENDCHAR
STARTCHAR char99
ENCODING 8779
SWIDTH 6500 0
DWIDTH 13 0
BBX 12 13 1 0
BITMAP
7F80
7F80
0C00
0400
0400
3C00
7E00
FF00
8180
00C0
0060
0020
0010
ENDCHAR
STARTCHAR char8780
ENCODING 8780
SWIDTH 7000 0
DWIDTH 14 0
BBX 12 11 1 0
BITMAP
FFF0
FFF0
FFF0
FFF0
FFF0
FFF0
FFF0
FFF0
FFF0
FFF0
FFF0
ENDCHAR
STARTCHAR char8781
ENCODING 8781
SWIDTH 7000 0
DWIDTH 14 0
BBX 12 11 1 0
BITMAP
FFF0
FFF0
FFF0
FFF0
FFF0
FFF0
FFF0
FFF0
FFF0
FFF0
FFF0
ENDCHAR
STARTCHAR char8782
ENCODING 8782
SWIDTH 7000 0
DWIDTH 14 0
BBX 12 11 1 0
BITMAP
FFF0
FFF0
FFF0
FFF0
FFF0
FFF0
FFF0
FFF0
FFF0
FFF0
FFF0
ENDCHAR
STARTCHAR char8783
ENCODING 8783
SWIDTH 7000 0
DWIDTH 14 0
BBX 12 11 1 0
BITMAP
FFF0
FFF0
FFF0
FFF0
FFF0
FFF0
FFF0
FFF0
FFF0
FFF0
FFF0
ENDCHAR
STARTCHAR char8784
ENCODING 8784
SWIDTH 7000 0
DWIDTH 14 0
BBX 12 11 1 0
BITMAP
FFF0
FFF0
FFF0
FFF0
FFF0
FFF0
FFF0
FFF0
FFF0
FFF0
FFF0
ENDCHAR
STARTCHAR char8784
ENCODING 8785
SWIDTH 6500 0
DWIDTH 13 0
BBX 10 9 1 4
BITMAP
DB40
0000
8040
8000
0040
8040
8000
0040
DB40
ENDCHAR
STARTCHAR char33
ENCODING 8786
SWIDTH 6000 0
DWIDTH 12 0
BBX 7 8 4 -7
BITMAP
3C
7C
84
84
84
18
3C
02
ENDCHAR
STARTCHAR char107
ENCODING 8787
SWIDTH 5500 0
DWIDTH 11 0
BBX 9 7 1 5
BITMAP
7000
F800
8C00
8600
C200
7100
0080
ENDCHAR
STARTCHAR char107
ENCODING 8788
SWIDTH 6000 0
DWIDTH 12 0
BBX 10 21 1 -9
BITMAP
7000
F800
8C00
8600
C200
7100
0080
0000
0000
0000
0000
0000
0000
0780
0F80
1080
1080
1080
0300
0780
0040
ENDCHAR
STARTCHAR char108
ENCODING 8789
SWIDTH 6000 0
DWIDTH 12 0
BBX 10 7 1 -6
BITMAP
8000
4000
2180
12C0
0840
07C0
0380
ENDCHAR
STARTCHAR char108
ENCODING 8790
SWIDTH 6000 0
DWIDTH 12 0
BBX 11 12 1 -6
BITMAP
0780
0F80
1080
1080
1080
8300
4780
21C0
12A0
0840
07C0
0380
ENDCHAR
STARTCHAR char111
ENCODING 8791
SWIDTH 7500 0
DWIDTH 15 0
BBX 9 18 1 -5
BITMAP
0700
0F80
1880
3080
2180
4700
8000
0000
0000
0000
0000
0000
0080
7880
FC80
0680
0180
0080
ENDCHAR
STARTCHAR char111
ENCODING 8792
SWIDTH 7500 0
DWIDTH 15 0
BBX 9 24 1 -11
BITMAP
0700
0F80
1880
3080
2180
4700
8000
0000
0000
0000
0080
7880
FC80
0680
0180
0080
0F00
1F00
2100
2100
2100
0600
0F00
0080
ENDCHAR
STARTCHAR char111
ENCODING 8793
SWIDTH 8000 0
DWIDTH 16 0
BBX 10 20 1 -7
BITMAP
0700
0F80
1880
3080
2180
4700
8000
0000
0000
0000
0000
3CC0
7CC0
8440
8440
8440
C440
6E40
0F40
00C0
ENDCHAR
STARTCHAR char111
ENCODING 8794
SWIDTH 8000 0
DWIDTH 16 0
BBX 10 25 1 -12
BITMAP
0700
0F80
1880
3080
2180
4700
8000
0000
0000
3CC0
7CC0
8440
8440
8440
C440
6E40
0F40
00C0
1F00
3F00
2100
2100
0600
0F00
0080
ENDCHAR
STARTCHAR char109
ENCODING 8795
SWIDTH 6000 0
DWIDTH 12 0
BBX 10 6 0 6
BITMAP
F000
7C00
3E00
0100
0080
0040
ENDCHAR
STARTCHAR char112
ENCODING 8796
SWIDTH 6000 0
DWIDTH 12 0
BBX 10 7 0 5
BITMAP
F000
7800
0C00
E600
7F00
0380
0040
ENDCHAR
STARTCHAR char110
ENCODING 8797
SWIDTH 6000 0
DWIDTH 12 0
BBX 13 6 0 6
BITMAP
0078
01F0
03C0
F200
3C00
0400
ENDCHAR
STARTCHAR char113
ENCODING 8798
SWIDTH 6000 0
DWIDTH 12 0
BBX 14 7 0 6
BITMAP
003C
E0F0
79CC
0E38
F2F0
3F00
0200
ENDCHAR
STARTCHAR char115
ENCODING 8799
SWIDTH 6000 0
DWIDTH 12 0
BBX 5 5 3 6
BITMAP
70
88
88
88
70
ENDCHAR
STARTCHAR char114
ENCODING 8800
SWIDTH 3500 0
DWIDTH 7 0
BBX 4 10 1 3
BITMAP
60
90
90
60
00
00
60
90
90
60
ENDCHAR
STARTCHAR char107
ENCODING 8801
SWIDTH 5500 0
DWIDTH 11 0
BBX 9 7 1 5
BITMAP
0700
0F80
1880
3080
2180
4700
8000
ENDCHAR
STARTCHAR char107
ENCODING 8802
SWIDTH 5500 0
DWIDTH 11 0
BBX 9 21 2 -9
BITMAP
0700
0F80
1880
3080
2180
4700
8000
0000
0000
0000
0000
0000
0000
0F00
1F00
2100
2100
2100
0600
0F00
0080
ENDCHAR
STARTCHAR char116
ENCODING 8803
SWIDTH 6500 0
DWIDTH 13 0
BBX 8 9 1 6
BITMAP
10
10
10
08
24
24
99
42
3C
ENDCHAR
STARTCHAR char115
ENCODING 8804
SWIDTH 4500 0
DWIDTH 9 0
BBX 8 6 2 6
BITMAP
18
24
24
99
42
3C
ENDCHAR
STARTCHAR char119
ENCODING 8805
SWIDTH 6000 0
DWIDTH 12 0
BBX 8 6 6 -5
BITMAP
E0
70
18
04
02
01
ENDCHAR
STARTCHAR char118
ENCODING 8806
SWIDTH 6000 0
DWIDTH 12 0
BBX 11 18 1 -5
BITMAP
3E00
7E00
C200
8600
C780
6FC0
2CE0
0860
0820
0C20
0660
0060
0040
00C0
0080
00C0
0040
0020
ENDCHAR
STARTCHAR char120
ENCODING 8807
SWIDTH 4500 0
DWIDTH 9 0
BBX 6 8 3 10
BITMAP
20
20
20
20
48
84
48
30
ENDCHAR
STARTCHAR char121
ENCODING 8808
SWIDTH 6000 0
DWIDTH 12 0
BBX 1 6 5 12
BITMAP
80
80
80
80
80
80
ENDCHAR
STARTCHAR char122
ENCODING 8809
SWIDTH 6000 0
DWIDTH 12 0
BBX 9 7 1 5
BITMAP
FF80
4100
2200
1C00
2200
4100
FF80
ENDCHAR
STARTCHAR char123
ENCODING 8810
SWIDTH 5500 0
DWIDTH 11 0
BBX 9 7 2 6
BITMAP
7700
FF80
C980
8880
8880
C980
4900
ENDCHAR
STARTCHAR char124
ENCODING 8811
SWIDTH 6000 0
DWIDTH 12 0
BBX 9 7 2 5
BITMAP
E380
A280
A280
A280
A280
A280
BE80
ENDCHAR
STARTCHAR char125
ENCODING 8812
SWIDTH 6000 0
DWIDTH 12 0
BBX 10 7 1 5
BITMAP
3980
7940
C940
8900
9D00
8300
0100
ENDCHAR
STARTCHAR char8784
ENCODING 8813
SWIDTH 7000 0
DWIDTH 14 0
BBX 12 11 1 0
BITMAP
FFF0
FFF0
FFF0
FFF0
FFF0
FFF0
FFF0
FFF0
FFF0
FFF0
FFF0
ENDCHAR
STARTCHAR char8784
ENCODING 8814
SWIDTH 7000 0
DWIDTH 14 0
BBX 12 11 1 0
BITMAP
FFF0
FFF0
FFF0
FFF0
FFF0
FFF0
FFF0
FFF0
FFF0
FFF0
FFF0
ENDCHAR
STARTCHAR char8784
ENCODING 8815
SWIDTH 7000 0
DWIDTH 14 0
BBX 12 11 1 0
BITMAP
FFF0
FFF0
FFF0
FFF0
FFF0
FFF0
FFF0
FFF0
FFF0
FFF0
FFF0
ENDCHAR
STARTCHAR char8779
ENCODING 8816
SWIDTH 7000 0
DWIDTH 14 0
BBX 12 11 1 0
BITMAP
FFF0
FFF0
FFF0
FFF0
FFF0
FFF0
FFF0
FFF0
FFF0
FFF0
FFF0
ENDCHAR
STARTCHAR char8780
ENCODING 8817
SWIDTH 7000 0
DWIDTH 14 0
BBX 12 11 1 0
BITMAP
FFF0
FFF0
FFF0
FFF0
FFF0
FFF0
FFF0
FFF0
FFF0
FFF0
FFF0
ENDCHAR
STARTCHAR char8781
ENCODING 8818
SWIDTH 7000 0
DWIDTH 14 0
BBX 12 11 1 0
BITMAP
FFF0
FFF0
FFF0
FFF0
FFF0
FFF0
FFF0
FFF0
FFF0
FFF0
FFF0
ENDCHAR
STARTCHAR char8782
ENCODING 8819
SWIDTH 7000 0
DWIDTH 14 0
BBX 12 11 1 0
BITMAP
FFF0
FFF0
FFF0
FFF0
FFF0
FFF0
FFF0
FFF0
FFF0
FFF0
FFF0
ENDCHAR
STARTCHAR char8783
ENCODING 8820
SWIDTH 7000 0
DWIDTH 14 0
BBX 12 11 1 0
BITMAP
FFF0
FFF0
FFF0
FFF0
FFF0
FFF0
FFF0
FFF0
FFF0
FFF0
FFF0
ENDCHAR
STARTCHAR char8779
ENCODING 8821
SWIDTH 7000 0
DWIDTH 14 0
BBX 12 11 1 0
BITMAP
FFF0
FFF0
FFF0
FFF0
FFF0
FFF0
FFF0
FFF0
FFF0
FFF0
FFF0
ENDCHAR
STARTCHAR char8780
ENCODING 8822
SWIDTH 7000 0
DWIDTH 14 0
BBX 12 11 1 0
BITMAP
FFF0
FFF0
FFF0
FFF0
FFF0
FFF0
FFF0
FFF0
FFF0
FFF0
FFF0
ENDCHAR
STARTCHAR char8781
ENCODING 8823
SWIDTH 7000 0
DWIDTH 14 0
BBX 12 11 1 0
BITMAP
FFF0
FFF0
FFF0
FFF0
FFF0
FFF0
FFF0
FFF0
FFF0
FFF0
FFF0
ENDCHAR
STARTCHAR char8782
ENCODING 8824
SWIDTH 7000 0
DWIDTH 14 0
BBX 12 11 1 0
BITMAP
FFF0
FFF0
FFF0
FFF0
FFF0
FFF0
FFF0
FFF0
FFF0
FFF0
FFF0
ENDCHAR
STARTCHAR char8783
ENCODING 8825
SWIDTH 7000 0
DWIDTH 14 0
BBX 12 11 1 0
BITMAP
FFF0
FFF0
FFF0
FFF0
FFF0
FFF0
FFF0
FFF0
FFF0
FFF0
FFF0
ENDCHAR
STARTCHAR char8779
ENCODING 8826
SWIDTH 7000 0
DWIDTH 14 0
BBX 12 11 1 0
BITMAP
FFF0
FFF0
FFF0
FFF0
FFF0
FFF0
FFF0
FFF0
FFF0
FFF0
FFF0
ENDCHAR
STARTCHAR char8780
ENCODING 8827
SWIDTH 7000 0
DWIDTH 14 0
BBX 12 11 1 0
BITMAP
FFF0
FFF0
FFF0
FFF0
FFF0
FFF0
FFF0
FFF0
FFF0
FFF0
FFF0
ENDCHAR
STARTCHAR char8781
ENCODING 8828
SWIDTH 7000 0
DWIDTH 14 0
BBX 12 11 1 0
BITMAP
FFF0
FFF0
FFF0
FFF0
FFF0
FFF0
FFF0
FFF0
FFF0
FFF0
FFF0
ENDCHAR
STARTCHAR char8782
ENCODING 8829
SWIDTH 7000 0
DWIDTH 14 0
BBX 12 11 1 0
BITMAP
FFF0
FFF0
FFF0
FFF0
FFF0
FFF0
FFF0
FFF0
FFF0
FFF0
FFF0
ENDCHAR
STARTCHAR char8783
ENCODING 8830
SWIDTH 7000 0
DWIDTH 14 0
BBX 12 11 1 0
BITMAP
FFF0
FFF0
FFF0
FFF0
FFF0
FFF0
FFF0
FFF0
FFF0
FFF0
FFF0
ENDCHAR
STARTCHAR char1
ENCODING 8993
SWIDTH 6000 0
DWIDTH 12 0
BBX 10 9 1 4
BITMAP
7FC0
7FC0
0CC0
3440
E240
0240
0140
0140
0040
ENDCHAR
STARTCHAR char2
ENCODING 8994
SWIDTH 6000 0
DWIDTH 12 0
BBX 10 10 1 3
BITMAP
7FC0
7FC0
8CC0
8840
9840
9840
8F40
83C0
8040
8000
ENDCHAR
STARTCHAR char3
ENCODING 8995
SWIDTH 5500 0
DWIDTH 11 0
BBX 10 9 1 4
BITMAP
FFC0
FFC0
4640
8240
8240
FA40
FE40
0240
0040
ENDCHAR
STARTCHAR char4
ENCODING 8996
SWIDTH 5500 0
DWIDTH 11 0
BBX 10 17 1 -4
BITMAP
FFC0
FFC0
42C0
8240
F240
FA40
0640
7F00
7F00
3000
6780
6FC0
3CC0
18C0
0C80
0100
0200
ENDCHAR
STARTCHAR char5
ENCODING 8997
SWIDTH 6000 0
DWIDTH 12 0
BBX 10 9 1 4
BITMAP
7FC0
7FC0
6000
4000
4000
FC00
FF00
0180
0040
ENDCHAR
STARTCHAR char6
ENCODING 8998
SWIDTH 5500 0
DWIDTH 11 0
BBX 10 10 1 3
BITMAP
7F00
7F00
0800
0C00
1F00
E180
60C0
3040
1F80
0F00
ENDCHAR
STARTCHAR char7
ENCODING 8999
SWIDTH 5000 0
DWIDTH 10 0
BBX 9 9 1 4
BITMAP
7F00
7F00
0800
7F00
FF80
8880
8880
8880
7700
ENDCHAR
STARTCHAR char8
ENCODING 9000
SWIDTH 6000 0
DWIDTH 12 0
BBX 11 10 1 3
BITMAP
7FC0
7FC0
4000
4F00
FF80
C000
8000
FF00
FFC0
0020
ENDCHAR
STARTCHAR char9001
ENCODING 9001
SWIDTH 7000 0
DWIDTH 14 0
BBX 12 11 1 0
BITMAP
FFF0
FFF0
FFF0
FFF0
FFF0
FFF0
FFF0
FFF0
FFF0
FFF0
FFF0
ENDCHAR
STARTCHAR char10
ENCODING 9002
SWIDTH 5000 0
DWIDTH 10 0
BBX 9 12 1 1
BITMAP
7E00
FE00
C600
8400
CF00
5F80
3180
3080
1C80
0900
0200
0400
ENDCHAR
STARTCHAR char11
ENCODING 9003
SWIDTH 5000 0
DWIDTH 10 0
BBX 9 11 1 2
BITMAP
FF80
FF80
0180
3980
7D00
E700
C300
C000
6000
2000
1000
ENDCHAR
STARTCHAR char12
ENCODING 9004
SWIDTH 5500 0
DWIDTH 11 0
BBX 9 10 1 3
BITMAP
FC00
FE00
8100
8100
FE00
8100
8E80
9F80
A000
C000
ENDCHAR
STARTCHAR char13
ENCODING 9005
SWIDTH 5500 0
DWIDTH 11 0
BBX 10 10 1 3
BITMAP
7FC0
7FC0
0100
0080
1FC0
3FC0
3000
6000
4000
8000
ENDCHAR
STARTCHAR char14
ENCODING 9006
SWIDTH 5500 0
DWIDTH 11 0
BBX 10 19 1 -6
BITMAP
7F00
7F00
0400
0200
3F00
7F00
4000
8000
FF00
FF00
6000
4F00
DF80
78C0
30C0
1980
0900
0200
0400
ENDCHAR
STARTCHAR char15
ENCODING 9007
SWIDTH 5000 0
DWIDTH 10 0
BBX 8 12 1 1
BITMAP
7F
7F
08
1E
3F
71
51
8E
80
80
80
80
ENDCHAR
STARTCHAR char11
ENCODING 9008
SWIDTH 5500 0
DWIDTH 11 0
BBX 9 11 1 2
BITMAP
FF80
FF80
C000
CE00
5F00
7380
6180
0180
0300
0200
0400
ENDCHAR
STARTCHAR char12
ENCODING 9009
SWIDTH 5500 0
DWIDTH 11 0
BBX 9 10 1 3
BITMAP
1F80
3F80
4080
4080
3F80
4080
B880
FC80
0280
0180
ENDCHAR
STARTCHAR char18
ENCODING 9010
SWIDTH 5500 0
DWIDTH 11 0
BBX 10 10 1 3
BITMAP
FF80
FF80
6000
4000
FC00
FE00
0300
0180
0080
0040
ENDCHAR
STARTCHAR char19
ENCODING 9011
SWIDTH 6000 0
DWIDTH 12 0
BBX 10 18 1 -5
BITMAP
FF80
FF80
2000
4000
FE00
FF00
0180
FE80
FE40
6000
C700
CF80
7980
3180
1980
0900
0200
0400
ENDCHAR
STARTCHAR char15
ENCODING 9012
SWIDTH 5000 0
DWIDTH 10 0
BBX 8 12 1 1
BITMAP
FE
FE
10
78
FC
8E
8A
71
01
01
01
01
ENDCHAR
STARTCHAR char21
ENCODING 9013
SWIDTH 6000 0
DWIDTH 12 0
BBX 10 9 1 4
BITMAP
FCC0
FCC0
4040
8040
8040
F840
FF40
01C0
0040
ENDCHAR
STARTCHAR char21
ENCODING 9014
SWIDTH 6000 0
DWIDTH 12 0
BBX 10 9 1 4
BITMAP
FCC0
FCC0
4040
83C0
8640
FC40
FF40
01C0
0040
ENDCHAR
STARTCHAR char21
ENCODING 9015
SWIDTH 6000 0
DWIDTH 12 0
BBX 10 9 1 4
BITMAP
FFC0
FFC0
4040
8040
8040
F840
FF40
01C0
0040
ENDCHAR
STARTCHAR char24
ENCODING 9016
SWIDTH 6000 0
DWIDTH 12 0
BBX 10 17 1 -4
BITMAP
FF80
FF80
4080
8080
FC80
FF80
0080
7F00
7F00
1000
2780
7FC0
38C0
18C0
0980
0200
0400
ENDCHAR
STARTCHAR char25
ENCODING 9017
SWIDTH 6000 0
DWIDTH 12 0
BBX 10 9 1 4
BITMAP
FEC0
FEC0
3040
1040
7C40
CE40
8740
C9C0
7040
ENDCHAR
STARTCHAR char6
ENCODING 9018
SWIDTH 5500 0
DWIDTH 11 0
BBX 10 13 1 3
BITMAP
00C0
00C0
0100
7F00
7F00
0800
0C00
1F00
E180
60C0
3040
1F80
0F00
ENDCHAR
STARTCHAR char7
ENCODING 9019
SWIDTH 5500 0
DWIDTH 11 0
BBX 10 13 1 3
BITMAP
00C0
00C0
0100
7F00
7F00
0800
0800
7F00
FF80
8880
8880
8880
7700
ENDCHAR
STARTCHAR char8
ENCODING 9020
SWIDTH 6500 0
DWIDTH 13 0
BBX 12 13 1 3
BITMAP
0030
0030
0040
7FC0
7FC0
4000
4F00
FF80
C000
8000
FF00
FFC0
0020
ENDCHAR
STARTCHAR char29
ENCODING 9021
SWIDTH 6500 0
DWIDTH 13 0
BBX 12 22 1 -6
BITMAP
0030
0070
0040
7FC0
7F80
4000
FF00
8000
BE00
FF80
0040
FFA0
FF80
2000
4E00
DF00
7980
3180
1180
0900
0200
0400
ENDCHAR
STARTCHAR char30
ENCODING 9022
SWIDTH 6000 0
DWIDTH 12 0
BBX 4 8 8 5
BITMAP
10
10
30
50
90
50
30
10
ENDCHAR
STARTCHAR char31
ENCODING 9023
SWIDTH 5500 0
DWIDTH 11 0
BBX 10 11 1 2
BITMAP
1FC0
3FC0
6180
CF80
9F80
9180
D1C0
CEC0
4040
0040
0040
ENDCHAR
STARTCHAR char32
ENCODING 9024
SWIDTH 5500 0
DWIDTH 11 0
BBX 10 10 1 3
BITMAP
FFC0
FFC0
00C0
7E40
FF40
00C0
0040
7E40
FF40
00C0
ENDCHAR
STARTCHAR char252
ENCODING 9025
SWIDTH 6500 0
DWIDTH 13 0
BBX 12 10 1 3
BITMAP
1F80
3FC0
40C0
C040
8040
C180
C780
6FC0
0060
0010
ENDCHAR
STARTCHAR char34
ENCODING 9026
SWIDTH 6500 0
DWIDTH 13 0
BBX 12 8 1 5
BITMAP
0020
0020
F020
4FC0
2010
1020
0FC0
0780
ENDCHAR
STARTCHAR char35
ENCODING 9027
SWIDTH 6000 0
DWIDTH 12 0
BBX 9 6 2 8
BITMAP
0080
0080
7C80
FE80
0180
0080
ENDCHAR
STARTCHAR char36
ENCODING 9028
SWIDTH 6000 0
DWIDTH 12 0
BBX 10 9 1 4
BITMAP
3CC0
7CC0
C440
8440
8440
C840
6E40
2F40
00C0
ENDCHAR
STARTCHAR char37
ENCODING 9029
SWIDTH 5500 0
DWIDTH 11 0
BBX 11 10 1 3
BITMAP
07E0
0FE0
0C60
0820
0C60
6FA0
F820
0420
0020
0020
ENDCHAR
STARTCHAR char37
ENCODING 9030
SWIDTH 5500 0
DWIDTH 11 0
BBX 11 10 1 3
BITMAP
FC00
FE00
C600
8200
C600
BEC0
83E0
8400
8000
8000
ENDCHAR
STARTCHAR char39
ENCODING 9031
SWIDTH 5000 0
DWIDTH 10 0
BBX 9 8 1 5
BITMAP
FD80
FD80
7880
C480
E280
F180
1880
0480
ENDCHAR
STARTCHAR char40
ENCODING 9032
SWIDTH 5000 0
DWIDTH 10 0
BBX 9 10 1 3
BITMAP
FF00
FF00
2000
4F00
DF80
7180
3080
1100
0200
0400
ENDCHAR
STARTCHAR char41
ENCODING 9033
SWIDTH 6500 0
DWIDTH 13 0
BBX 11 9 1 4
BITMAP
DE60
DE60
8C20
9E20
BF20
8DA0
84A0
7C60
3820
ENDCHAR
STARTCHAR char42
ENCODING 9034
SWIDTH 6500 0
DWIDTH 13 0
BBX 12 16 1 -3
BITMAP
7FC0
7FC0
1CC0
1440
6240
C240
0240
0040
7E40
7F00
6300
4100
6300
5D60
41F0
4100
ENDCHAR
STARTCHAR char253
ENCODING 9035
SWIDTH 6000 0
DWIDTH 12 0
BBX 10 10 1 3
BITMAP
71C0
F180
9100
BFC0
3FC0
3040
3C40
0740
01C0
0040
ENDCHAR
STARTCHAR char254
ENCODING 9036
SWIDTH 6000 0
DWIDTH 12 0
BBX 10 9 1 4
BITMAP
DCC0
DCC0
8840
8840
8440
FF40
79C0
00C0
0040
ENDCHAR
STARTCHAR char255
ENCODING 9037
SWIDTH 6500 0
DWIDTH 13 0
BBX 12 9 1 4
BITMAP
7F80
7F80
0C00
0400
3F00
7F80
C0C0
0020
0010
ENDCHAR
STARTCHAR char9039
ENCODING 9038
SWIDTH 7000 0
DWIDTH 14 0
BBX 12 11 1 0
BITMAP
FFF0
FFF0
FFF0
FFF0
FFF0
FFF0
FFF0
FFF0
FFF0
FFF0
FFF0
ENDCHAR
STARTCHAR char8525
ENCODING 9039
SWIDTH 6500 0
DWIDTH 13 0
BBX 12 11 1 2
BITMAP
C030
E070
70E0
3980
1F00
0E00
0E00
1B00
3180
60C0
C060
ENDCHAR
STARTCHAR char8550
ENCODING 9040
SWIDTH 7000 0
DWIDTH 14 0
BBX 13 13 1 0
BITMAP
0300
C318
7038
3870
18C0
0D80
C718
C718
0D80
10C0
6060
C330
0300
ENDCHAR
STARTCHAR char9042
ENCODING 9041
SWIDTH 7000 0
DWIDTH 14 0
BBX 13 10 1 2
BITMAP
1FC0
3FE0
7070
C018
8008
8008
C018
7070
3FE0
1FC0
ENDCHAR
STARTCHAR char9043
ENCODING 9042
SWIDTH 6000 0
DWIDTH 12 0
BBX 10 7 1 4
BITMAP
3F00
6180
8040
8040
8040
6180
3F00
ENDCHAR
STARTCHAR char9044
ENCODING 9043
SWIDTH 9500 0
DWIDTH 19 0
BBX 12 15 1 -2
BITMAP
0600
0700
06C0
0020
1F90
30D0
2070
6060
E040
B0C0
9F80
4000
3600
0E00
0600
ENDCHAR
STARTCHAR char9045
ENCODING 9044
SWIDTH 7000 0
DWIDTH 14 0
BBX 12 12 1 1
BITMAP
1F80
30C0
4020
CF30
9090
9690
9690
9690
CF30
4620
36C0
1F80
ENDCHAR
STARTCHAR char9046
ENCODING 9045
SWIDTH 6000 0
DWIDTH 12 0
BBX 11 22 1 -9
BITMAP
0400
2E80
1F00
3580
2480
3580
1F00
0400
0400
1F00
3F80
60C0
60C0
4040
4040
4040
4040
C060
C060
FFE0
C060
7FC0
ENDCHAR
STARTCHAR char9046
ENCODING 9046
SWIDTH 5000 0
DWIDTH 10 0
BBX 9 21 1 -8
BITMAP
0800
5D00
2A00
2A00
1C00
0800
1C00
2200
4900
A680
9880
AA80
4900
3200
1C00
0800
1C00
2A00
2A00
5D00
0800
ENDCHAR
STARTCHAR char9048
ENCODING 9047
SWIDTH 10500 0
DWIDTH 21 0
BBX 17 9 1 -12
BITMAP
800080
900480
F49780
DFFD80
C49180
649300
2C9A00
3FFE00
549500
ENDCHAR
STARTCHAR char9046
ENCODING 9048
SWIDTH 11000 0
DWIDTH 22 0
BBX 21 21 1 -8
BITMAP
002000
017400
00A800
00A800
007000
002000
007000
408810
312460
4A9A90
FE63F8
4AAA90
312460
40C810
007000
002000
007000
00A800
00A800
017400
002000
ENDCHAR
STARTCHAR char9050
ENCODING 9049
SWIDTH 5500 0
DWIDTH 11 0
BBX 11 20 1 -7
BITMAP
0400
2E80
1500
1500
1500
0E00
0400
0400
FFE0
7FC0
6AC0
2A80
2480
3180
1100
1B00
0A00
0E00
0400
0400
ENDCHAR
STARTCHAR char9051
ENCODING 9050
SWIDTH 8000 0
DWIDTH 16 0
BBX 12 15 1 -2
BITMAP
0600
0F00
1980
30C0
6660
50A0
CF30
9090
8F10
8010
8010
C030
6060
39C0
1F80
ENDCHAR
STARTCHAR char9053
ENCODING 9051
SWIDTH 6000 0
DWIDTH 12 0
BBX 10 10 1 3
BITMAP
3F00
6180
CCC0
C0C0
B940
A740
C0C0
CDC0
6180
3F00
ENDCHAR
STARTCHAR char9053
ENCODING 9052
SWIDTH 6000 0
DWIDTH 12 0
BBX 10 10 1 3
BITMAP
3F00
6980
D6C0
C2C0
BA40
AD40
C4C0
D7C0
6180
3F00
ENDCHAR
STARTCHAR char9053
ENCODING 9053
SWIDTH 6000 0
DWIDTH 12 0
BBX 10 10 1 3
BITMAP
3F00
6980
C4C0
C4C0
B940
A740
C8C0
C9C0
6580
3F00
ENDCHAR
STARTCHAR char9039
ENCODING 9054
SWIDTH 7000 0
DWIDTH 14 0
BBX 12 11 1 0
BITMAP
FFF0
FFF0
FFF0
FFF0
FFF0
FFF0
FFF0
FFF0
FFF0
FFF0
FFF0
ENDCHAR
STARTCHAR char9039
ENCODING 9055
SWIDTH 7000 0
DWIDTH 14 0
BBX 12 11 1 0
BITMAP
FFF0
FFF0
FFF0
FFF0
FFF0
FFF0
FFF0
FFF0
FFF0
FFF0
FFF0
ENDCHAR
STARTCHAR char8526
ENCODING 9056
SWIDTH 8000 0
DWIDTH 16 0
BBX 13 13 1 0
BITMAP
18C0
0D80
0700
0700
0D80
18C0
0000
CD98
78F0
3060
3860
6CF0
C798
ENDCHAR
STARTCHAR char8779
ENCODING 9057
SWIDTH 7000 0
DWIDTH 14 0
BBX 12 11 1 0
BITMAP
FFF0
FFF0
FFF0
FFF0
FFF0
FFF0
FFF0
FFF0
FFF0
FFF0
FFF0
ENDCHAR
STARTCHAR char8780
ENCODING 9058
SWIDTH 7000 0
DWIDTH 14 0
BBX 12 11 1 0
BITMAP
FFF0
FFF0
FFF0
FFF0
FFF0
FFF0
FFF0
FFF0
FFF0
FFF0
FFF0
ENDCHAR
STARTCHAR char8781
ENCODING 9059
SWIDTH 7000 0
DWIDTH 14 0
BBX 12 11 1 0
BITMAP
FFF0
FFF0
FFF0
FFF0
FFF0
FFF0
FFF0
FFF0
FFF0
FFF0
FFF0
ENDCHAR
STARTCHAR char8782
ENCODING 9060
SWIDTH 7000 0
DWIDTH 14 0
BBX 12 11 1 0
BITMAP
FFF0
FFF0
FFF0
FFF0
FFF0
FFF0
FFF0
FFF0
FFF0
FFF0
FFF0
ENDCHAR
STARTCHAR char8783
ENCODING 9061
SWIDTH 7000 0
DWIDTH 14 0
BBX 12 11 1 0
BITMAP
FFF0
FFF0
FFF0
FFF0
FFF0
FFF0
FFF0
FFF0
FFF0
FFF0
FFF0
ENDCHAR
STARTCHAR char8779
ENCODING 9062
SWIDTH 7000 0
DWIDTH 14 0
BBX 12 11 1 0
BITMAP
FFF0
FFF0
FFF0
FFF0
FFF0
FFF0
FFF0
FFF0
FFF0
FFF0
FFF0
ENDCHAR
STARTCHAR char8780
ENCODING 9063
SWIDTH 7000 0
DWIDTH 14 0
BBX 12 11 1 0
BITMAP
FFF0
FFF0
FFF0
FFF0
FFF0
FFF0
FFF0
FFF0
FFF0
FFF0
FFF0
ENDCHAR
STARTCHAR char8781
ENCODING 9064
SWIDTH 7000 0
DWIDTH 14 0
BBX 12 11 1 0
BITMAP
FFF0
FFF0
FFF0
FFF0
FFF0
FFF0
FFF0
FFF0
FFF0
FFF0
FFF0
ENDCHAR
STARTCHAR char8782
ENCODING 9065
SWIDTH 7000 0
DWIDTH 14 0
BBX 12 11 1 0
BITMAP
FFF0
FFF0
FFF0
FFF0
FFF0
FFF0
FFF0
FFF0
FFF0
FFF0
FFF0
ENDCHAR
STARTCHAR char8783
ENCODING 9066
SWIDTH 7000 0
DWIDTH 14 0
BBX 12 11 1 0
BITMAP
FFF0
FFF0
FFF0
FFF0
FFF0
FFF0
FFF0
FFF0
FFF0
FFF0
FFF0
ENDCHAR
STARTCHAR char8779
ENCODING 9067
SWIDTH 7000 0
DWIDTH 14 0
BBX 12 11 1 0
BITMAP
FFF0
FFF0
FFF0
FFF0
FFF0
FFF0
FFF0
FFF0
FFF0
FFF0
FFF0
ENDCHAR
STARTCHAR char8780
ENCODING 9068
SWIDTH 7000 0
DWIDTH 14 0
BBX 12 11 1 0
BITMAP
FFF0
FFF0
FFF0
FFF0
FFF0
FFF0
FFF0
FFF0
FFF0
FFF0
FFF0
ENDCHAR
STARTCHAR char8781
ENCODING 9069
SWIDTH 7000 0
DWIDTH 14 0
BBX 12 11 1 0
BITMAP
FFF0
FFF0
FFF0
FFF0
FFF0
FFF0
FFF0
FFF0
FFF0
FFF0
FFF0
ENDCHAR
STARTCHAR char8782
ENCODING 9070
SWIDTH 7000 0
DWIDTH 14 0
BBX 12 11 1 0
BITMAP
FFF0
FFF0
FFF0
FFF0
FFF0
FFF0
FFF0
FFF0
FFF0
FFF0
FFF0
ENDCHAR
STARTCHAR char8783
ENCODING 9071
SWIDTH 7000 0
DWIDTH 14 0
BBX 12 11 1 0
BITMAP
FFF0
FFF0
FFF0
FFF0
FFF0
FFF0
FFF0
FFF0
FFF0
FFF0
FFF0
ENDCHAR
STARTCHAR char8779
ENCODING 9072
SWIDTH 7000 0
DWIDTH 14 0
BBX 12 11 1 0
BITMAP
FFF0
FFF0
FFF0
FFF0
FFF0
FFF0
FFF0
FFF0
FFF0
FFF0
FFF0
ENDCHAR
STARTCHAR char8780
ENCODING 9073
SWIDTH 7000 0
DWIDTH 14 0
BBX 12 11 1 0
BITMAP
FFF0
FFF0
FFF0
FFF0
FFF0
FFF0
FFF0
FFF0
FFF0
FFF0
FFF0
ENDCHAR
STARTCHAR char8781
ENCODING 9074
SWIDTH 7000 0
DWIDTH 14 0
BBX 12 11 1 0
BITMAP
FFF0
FFF0
FFF0
FFF0
FFF0
FFF0
FFF0
FFF0
FFF0
FFF0
FFF0
ENDCHAR
STARTCHAR char8782
ENCODING 9075
SWIDTH 7000 0
DWIDTH 14 0
BBX 12 11 1 0
BITMAP
FFF0
FFF0
FFF0
FFF0
FFF0
FFF0
FFF0
FFF0
FFF0
FFF0
FFF0
ENDCHAR
STARTCHAR char8783
ENCODING 9076
SWIDTH 7000 0
DWIDTH 14 0
BBX 12 11 1 0
BITMAP
FFF0
FFF0
FFF0
FFF0
FFF0
FFF0
FFF0
FFF0
FFF0
FFF0
FFF0
ENDCHAR
STARTCHAR char8779
ENCODING 9077
SWIDTH 7000 0
DWIDTH 14 0
BBX 12 11 1 0
BITMAP
FFF0
FFF0
FFF0
FFF0
FFF0
FFF0
FFF0
FFF0
FFF0
FFF0
FFF0
ENDCHAR
STARTCHAR char8780
ENCODING 9078
SWIDTH 7000 0
DWIDTH 14 0
BBX 12 11 1 0
BITMAP
FFF0
FFF0
FFF0
FFF0
FFF0
FFF0
FFF0
FFF0
FFF0
FFF0
FFF0
ENDCHAR
STARTCHAR char8781
ENCODING 9079
SWIDTH 7000 0
DWIDTH 14 0
BBX 12 11 1 0
BITMAP
FFF0
FFF0
FFF0
FFF0
FFF0
FFF0
FFF0
FFF0
FFF0
FFF0
FFF0
ENDCHAR
STARTCHAR char8782
ENCODING 9080
SWIDTH 7000 0
DWIDTH 14 0
BBX 12 11 1 0
BITMAP
FFF0
FFF0
FFF0
FFF0
FFF0
FFF0
FFF0
FFF0
FFF0
FFF0
FFF0
ENDCHAR
STARTCHAR char8783
ENCODING 9081
SWIDTH 7000 0
DWIDTH 14 0
BBX 12 11 1 0
BITMAP
FFF0
FFF0
FFF0
FFF0
FFF0
FFF0
FFF0
FFF0
FFF0
FFF0
FFF0
ENDCHAR
STARTCHAR char8779
ENCODING 9082
SWIDTH 7000 0
DWIDTH 14 0
BBX 12 11 1 0
BITMAP
FFF0
FFF0
FFF0
FFF0
FFF0
FFF0
FFF0
FFF0
FFF0
FFF0
FFF0
ENDCHAR
STARTCHAR char8780
ENCODING 9083
SWIDTH 7000 0
DWIDTH 14 0
BBX 12 11 1 0
BITMAP
FFF0
FFF0
FFF0
FFF0
FFF0
FFF0
FFF0
FFF0
FFF0
FFF0
FFF0
ENDCHAR
STARTCHAR char8781
ENCODING 9084
SWIDTH 7000 0
DWIDTH 14 0
BBX 12 11 1 0
BITMAP
FFF0
FFF0
FFF0
FFF0
FFF0
FFF0
FFF0
FFF0
FFF0
FFF0
FFF0
ENDCHAR
STARTCHAR char8782
ENCODING 9085
SWIDTH 7000 0
DWIDTH 14 0
BBX 12 11 1 0
BITMAP
FFF0
FFF0
FFF0
FFF0
FFF0
FFF0
FFF0
FFF0
FFF0
FFF0
FFF0
ENDCHAR
STARTCHAR char8783
ENCODING 9086
SWIDTH 7000 0
DWIDTH 14 0
BBX 12 11 1 0
BITMAP
FFF0
FFF0
FFF0
FFF0
FFF0
FFF0
FFF0
FFF0
FFF0
FFF0
FFF0
ENDCHAR
STARTCHAR char128
ENCODING 9249
SWIDTH 6000 0
DWIDTH 12 0
BBX 10 19 1 -6
BITMAP
7FC0
7FC0
14C0
3440
6640
E240
0240
0040
0040
0040
0040
0040
0040
00C0
0140
0240
0140
00C0
0040
ENDCHAR
STARTCHAR char129
ENCODING 9250
SWIDTH 6000 0
DWIDTH 12 0
BBX 10 16 1 -3
BITMAP
7FC0
FFC0
CCC0
9840
9040
9E40
9FC0
83C0
8040
80C0
8140
8240
8140
80C0
8040
8000
ENDCHAR
STARTCHAR char130
ENCODING 9251
SWIDTH 5500 0
DWIDTH 11 0
BBX 10 19 1 -6
BITMAP
FFC0
FFC0
6EC0
8640
8240
FA40
FE40
0640
0240
0040
0040
0040
0040
00C0
0140
0240
0140
00C0
0040
ENDCHAR
STARTCHAR char70
ENCODING 9252
SWIDTH 6000 0
DWIDTH 12 0
BBX 11 18 1 -5
BITMAP
3F80
3F80
0400
0400
0700
0BC0
F0E0
6060
3060
1820
1C40
0FC0
00C0
0140
0240
0140
00C0
0040
ENDCHAR
STARTCHAR char74
ENCODING 9253
SWIDTH 6000 0
DWIDTH 12 0
BBX 11 18 1 -5
BITMAP
3F00
7F00
C100
8300
C780
6FC0
68E0
1860
1C60
0E60
00E0
00C0
0180
0300
0500
0900
0500
0300
ENDCHAR
STARTCHAR char75
ENCODING 9254
SWIDTH 5000 0
DWIDTH 10 0
BBX 9 19 1 -6
BITMAP
FF00
FF00
C000
C000
DE00
7F00
7380
2180
2180
0180
0180
0300
0600
0C00
1400
2400
1400
0C00
0400
ENDCHAR
STARTCHAR char77
ENCODING 9255
SWIDTH 6500 0
DWIDTH 13 0
BBX 11 20 1 -7
BITMAP
7FC0
7FC0
3000
6000
4000
FE00
FF00
0780
0180
00C0
00C0
0040
0060
0060
0060
00A0
0120
00A0
0060
0020
ENDCHAR
STARTCHAR char70
ENCODING 9256
SWIDTH 6500 0
DWIDTH 13 0
BBX 12 21 1 -5
BITMAP
0070
0060
0080
3F80
3F80
0400
0400
0700
0BC0
F0E0
6060
3060
1820
1C40
0FC0
00C0
0140
0240
0140
00C0
0040
ENDCHAR
STARTCHAR char71
ENCODING 9257
SWIDTH 6500 0
DWIDTH 13 0
BBX 12 20 1 -4
BITMAP
0030
0070
0040
7FC0
7FC0
0400
0400
3F80
7FC0
C460
8420
8420
CE60
7BC0
0040
01C0
0240
0140
00C0
0040
ENDCHAR
STARTCHAR char95
ENCODING 9258
SWIDTH 6000 0
DWIDTH 12 0
BBX 10 19 1 -6
BITMAP
0FC0
1FC0
20C0
4E80
5F80
DB80
D180
D1C0
DBC0
6EC0
2040
0040
0040
00C0
0140
0240
0140
00C0
0040
ENDCHAR
STARTCHAR char96
ENCODING 9259
SWIDTH 5500 0
DWIDTH 11 0
BBX 10 19 1 -6
BITMAP
FFC0
FFC0
00C0
0040
7E40
FFC0
00C0
0040
7E40
FF40
01C0
00C0
0040
00C0
0140
0240
0140
00C0
0040
ENDCHAR
STARTCHAR char99
ENCODING 9260
SWIDTH 6500 0
DWIDTH 13 0
BBX 12 18 1 -5
BITMAP
7F80
7F80
0C00
0400
0400
3C00
7E00
FF00
8180
00C0
0060
0020
0030
0050
0090
0050
0030
0010
ENDCHAR
STARTCHAR char100
ENCODING 9261
SWIDTH 6000 0
DWIDTH 12 0
BBX 10 17 1 -4
BITMAP
3CC0
7CC0
C440
8440
8440
8440
C840
5E40
1F40
01C0
0040
00C0
0140
0240
0140
00C0
0040
ENDCHAR
STARTCHAR char101
ENCODING 9262
SWIDTH 6000 0
DWIDTH 12 0
BBX 11 18 1 -5
BITMAP
07E0
0FE0
0C60
0820
0820
0C60
6BE0
F820
F820
0420
0020
0020
0060
00A0
0120
00A0
0060
0020
ENDCHAR
STARTCHAR char103
ENCODING 9263
SWIDTH 6000 0
DWIDTH 12 0
BBX 10 17 1 -4
BITMAP
FCC0
FCC0
7840
6C40
8640
C340
F1C0
F8C0
0C40
0640
0040
00C0
0140
0240
0140
00C0
0040
ENDCHAR
STARTCHAR char104
ENCODING 9264
SWIDTH 5500 0
DWIDTH 11 0
BBX 10 19 1 -6
BITMAP
FF00
FF00
2000
4000
CF00
DF80
79C0
30C0
18C0
08C0
0080
0180
0300
0600
0A00
1200
0A00
0600
0200
ENDCHAR
STARTCHAR char144
ENCODING 9280
SWIDTH 7000 0
DWIDTH 14 0
BBX 13 16 1 -3
BITMAP
7FE0
7FE0
0E60
1220
7220
E120
0120
0020
0020
0020
F840
4788
2010
1820
0FC0
0780
ENDCHAR
STARTCHAR char145
ENCODING 9281
SWIDTH 7000 0
DWIDTH 14 0
BBX 13 16 1 -3
BITMAP
7FE0
FFE0
CCE0
8860
9820
9F20
8FA0
83E0
8020
8020
BC48
A390
9820
8FC0
8780
8000
ENDCHAR
STARTCHAR char146
ENCODING 9282
SWIDTH 6500 0
DWIDTH 13 0
BBX 12 16 1 -3
BITMAP
FFC0
FFC0
66C0
8240
8240
FA40
FE40
0640
0240
0040
E040
9890
4720
3040
1F80
0F00
ENDCHAR
STARTCHAR char147
ENCODING 9283
SWIDTH 6500 0
DWIDTH 13 0
BBX 12 17 1 -4
BITMAP
FCC0
FCC0
6040
C040
8040
F840
FF40
07C0
00C0
0040
0040
F080
4F10
2020
1840
0FC0
0780
ENDCHAR
STARTCHAR char147
ENCODING 9284
SWIDTH 6500 0
DWIDTH 13 0
BBX 12 17 1 -4
BITMAP
FCC0
FCC0
6040
C3C0
8640
FC40
FF40
07C0
00C0
0040
0040
F080
4F10
2020
1840
0FC0
0780
ENDCHAR
STARTCHAR char147
ENCODING 9285
SWIDTH 6500 0
DWIDTH 13 0
BBX 12 17 1 -4
BITMAP
FFC0
FFC0
60C0
C040
8040
F840
FF40
07C0
00C0
0040
0040
F080
4F10
2020
1840
0FC0
0780
ENDCHAR
STARTCHAR char150
ENCODING 9286
SWIDTH 6500 0
DWIDTH 13 0
BBX 12 17 1 -4
BITMAP
FEC0
FEC0
1840
0840
7C40
FE40
8F40
89C0
70C0
0040
0040
F080
4F10
2020
1840
0FC0
0780
ENDCHAR
STARTCHAR char147
ENCODING 9287
SWIDTH 6500 0
DWIDTH 13 0
BBX 12 22 1 -9
BITMAP
FCC0
FCC0
6040
C3C0
8640
FC40
FF40
07C0
00C0
0040
0040
F080
4F10
2020
1840
0FC0
07C0
00C0
0140
0240
0140
00C0
ENDCHAR
STARTCHAR char152
ENCODING 9296
SWIDTH 6000 0
DWIDTH 12 0
BBX 10 15 1 -2
BITMAP
7FC0
7FC0
1CC0
1440
6440
C240
0240
0040
0040
0040
0040
3C40
7F40
01C0
0040
ENDCHAR
STARTCHAR char153
ENCODING 9297
SWIDTH 6000 0
DWIDTH 12 0
BBX 10 16 1 -3
BITMAP
7FC0
FFC0
88C0
9840
9040
9040
9F40
8FC0
80C0
8040
BC40
BF40
81C0
8040
8040
8000
ENDCHAR
STARTCHAR char154
ENCODING 9298
SWIDTH 5500 0
DWIDTH 11 0
BBX 10 15 1 -2
BITMAP
FFC0
FFC0
66C0
8240
E240
FA40
FE40
0240
0040
0040
7840
FE40
0340
00C0
0040
ENDCHAR
STARTCHAR char155
ENCODING 9299
SWIDTH 5500 0
DWIDTH 11 0
BBX 9 17 2 -4
BITMAP
FF00
FF00
C000
C000
4E00
5F00
7380
2180
2180
2180
0100
0300
0200
0400
7C00
FF00
0180
ENDCHAR
STARTCHAR char81
ENCODING 9300
SWIDTH 6000 0
DWIDTH 12 0
BBX 10 17 1 -4
BITMAP
1FC0
3FC0
40C0
4040
7FC0
3FC0
3040
6040
4040
7E40
FFC0
01C0
0040
7C40
FF40
01C0
0040
ENDCHAR
STARTCHAR char157
ENCODING 9301
SWIDTH 5500 0
DWIDTH 11 0
BBX 10 18 1 -5
BITMAP
FF80
FF80
2000
4000
C000
FC00
FF00
0780
0180
0080
00C0
00C0
0040
7C40
FE40
0340
00C0
0040
ENDCHAR
STARTCHAR char158
ENCODING 9302
SWIDTH 6000 0
DWIDTH 12 0
BBX 10 16 1 -3
BITMAP
FCC0
FCC0
6040
C040
C040
8040
F840
FE40
FF40
01C0
00C0
7840
FE40
03C0
00C0
0040
ENDCHAR
STARTCHAR char158
ENCODING 9303
SWIDTH 6000 0
DWIDTH 12 0
BBX 10 16 1 -3
BITMAP
FCC0
FCC0
6040
C1C0
C3C0
8640
FC40
FE40
FF40
01C0
00C0
7840
FE40
03C0
00C0
0040
ENDCHAR
STARTCHAR char158
ENCODING 9304
SWIDTH 6000 0
DWIDTH 12 0
BBX 10 16 1 -3
BITMAP
FFC0
FFC0
6040
C040
C040
8040
F840
FE40
FF40
01C0
00C0
7840
FE40
03C0
00C0
0040
ENDCHAR
STARTCHAR char161
ENCODING 9305
SWIDTH 6000 0
DWIDTH 12 0
BBX 10 17 1 -4
BITMAP
FCC0
FCC0
3040
1040
3840
7C40
CE40
8740
8740
49C0
30C0
0040
7840
FE40
07C0
00C0
0040
ENDCHAR
STARTCHAR char162
ENCODING 9306
SWIDTH 6000 0
DWIDTH 12 0
BBX 11 17 1 -4
BITMAP
07E0
0FE0
1860
1020
1820
1C60
73E0
F820
1820
0420
0020
0020
0020
3E20
3FA0
00E0
0020
ENDCHAR
STARTCHAR char163
ENCODING 9307
SWIDTH 6000 0
DWIDTH 12 0
BBX 10 15 1 -2
BITMAP
FCC0
FCC0
7840
EC40
C640
F340
F9C0
0CC0
0240
0040
7840
FE40
0340
00C0
0040
ENDCHAR
STARTCHAR char104
ENCODING 9308
SWIDTH 5500 0
DWIDTH 11 0
BBX 10 16 1 -3
BITMAP
FF00
FF00
2000
4000
CF00
DF80
79C0
30C0
18C0
08C0
0080
0180
0300
3E00
7F00
0080
ENDCHAR
STARTCHAR char224
ENCODING 9309
SWIDTH 6000 0
DWIDTH 12 0
BBX 11 15 1 -2
BITMAP
7FC0
7FC0
6000
4000
CF80
FF80
8000
8000
BE00
FF00
0180
7C40
FF20
03A0
0060
ENDCHAR
STARTCHAR char224
ENCODING 9310
SWIDTH 7000 0
DWIDTH 14 0
BBX 13 18 1 -2
BITMAP
0018
0038
0040
7FC0
7FC0
6000
4000
CF80
FF80
8000
8000
BE00
FF00
0180
7C40
FF20
03A0
0060
ENDCHAR
STARTCHAR char154
ENCODING 9311
SWIDTH 5500 0
DWIDTH 11 0
BBX 10 20 1 -7
BITMAP
FFC0
FFC0
66C0
8240
E240
FA40
FE40
0240
0040
0040
7840
FE40
0340
00C0
00C0
0140
0240
0140
00C0
0040
ENDCHAR
STARTCHAR char166
ENCODING 9312
SWIDTH 6000 0
DWIDTH 12 0
BBX 10 18 1 -5
BITMAP
7FC0
7FC0
14C0
7640
E240
0140
0140
0040
0040
3CC0
7CC0
C440
8440
8840
DE40
5F40
00C0
0040
ENDCHAR
STARTCHAR char167
ENCODING 9313
SWIDTH 6000 0
DWIDTH 12 0
BBX 10 18 1 -5
BITMAP
FFC0
FFC0
66C0
8240
E240
FA40
3E40
0240
0040
3CC0
7CC0
C440
8440
8840
DE40
5F40
00C0
0040
ENDCHAR
STARTCHAR char168
ENCODING 9314
SWIDTH 6000 0
DWIDTH 12 0
BBX 10 19 1 -6
BITMAP
FFC0
FFC0
40C0
C040
C040
F840
FE40
0F40
01C0
0040
3CC0
7CC0
C440
8440
8840
DC40
5E40
0340
00C0
ENDCHAR
STARTCHAR char169
ENCODING 9315
SWIDTH 6000 0
DWIDTH 12 0
BBX 10 19 1 -6
BITMAP
7FC0
7FC0
00C0
3E40
7FC0
0040
1C40
7F40
E3C0
00C0
3CC0
7CC0
C440
8440
8840
DC40
5E40
03C0
0040
ENDCHAR
STARTCHAR char170
ENCODING 9316
SWIDTH 6000 0
DWIDTH 12 0
BBX 11 19 1 -6
BITMAP
7F80
7F80
0C00
0400
3E00
7F00
8180
00C0
0020
3CC0
7CC0
C440
8440
8840
DC40
5E40
0140
00C0
0040
ENDCHAR
STARTCHAR char171
ENCODING 9317
SWIDTH 6000 0
DWIDTH 12 0
BBX 10 18 1 -5
BITMAP
7EC0
7EC0
3C40
6640
7340
7940
0CC0
0240
0040
3CC0
7CC0
C440
8440
8840
DE40
5F40
00C0
0040
ENDCHAR
STARTCHAR char172
ENCODING 9505
SWIDTH 5500 0
DWIDTH 11 0
BBX 10 16 1 -3
BITMAP
3F80
3F80
0400
7FC0
7FC0
1CC0
3640
6240
C240
0140
0140
0040
0040
0040
0040
0040
ENDCHAR
STARTCHAR char173
ENCODING 9506
SWIDTH 5500 0
DWIDTH 11 0
BBX 10 17 1 -4
BITMAP
3F80
3F80
0400
FFC0
FFC0
66C0
C240
8240
FA40
FE40
0240
0040
0040
0040
0040
0040
0040
ENDCHAR
STARTCHAR char174
ENCODING 9507
SWIDTH 5500 0
DWIDTH 11 0
BBX 10 14 1 -1
BITMAP
7F00
7F00
0800
FF80
FF80
C000
8000
8000
8000
BE00
FF00
C180
0080
0040
ENDCHAR
STARTCHAR char175
ENCODING 9508
SWIDTH 6000 0
DWIDTH 12 0
BBX 11 15 1 -2
BITMAP
3F80
3F80
0400
7FC0
7FC0
4000
4000
CF80
FF80
8000
8000
BF00
FF80
01C0
0020
ENDCHAR
STARTCHAR char176
ENCODING 9509
SWIDTH 6000 0
DWIDTH 12 0
BBX 11 21 1 -8
BITMAP
7FC0
7FC0
0C00
0400
1C00
7F00
FF80
00C0
3E20
7F00
8300
8300
E7C0
6BE0
10E0
1860
1C40
0CC0
0180
0200
0400
ENDCHAR
STARTCHAR char177
ENCODING 9510
SWIDTH 5000 0
DWIDTH 10 0
BBX 9 18 1 -5
BITMAP
7F00
7F00
0800
FF80
FF80
C000
CE00
DF00
7380
6180
2180
0180
0100
0200
0200
0400
0400
0800
ENDCHAR
STARTCHAR char178
ENCODING 9511
SWIDTH 5000 0
DWIDTH 10 0
BBX 9 18 1 -5
BITMAP
7F00
7F00
0800
FF80
FF80
6000
4000
FC00
FE00
0700
0100
0180
0080
0080
0080
0080
0080
0080
ENDCHAR
STARTCHAR char179
ENCODING 9512
SWIDTH 5000 0
DWIDTH 10 0
BBX 9 19 1 -6
BITMAP
7F00
7F00
0800
7F00
7F00
0800
3800
7C00
FE00
CF00
8700
8500
7900
0080
0080
0080
0080
0080
0080
ENDCHAR
STARTCHAR char180
ENCODING 9513
SWIDTH 6000 0
DWIDTH 12 0
BBX 10 14 1 -1
BITMAP
7F80
7F80
0C00
FFC0
FFC0
60C0
C040
C040
C040
FE40
FF40
01C0
00C0
0040
ENDCHAR
STARTCHAR char181
ENCODING 9514
SWIDTH 6000 0
DWIDTH 12 0
BBX 10 14 1 -1
BITMAP
FC00
FC00
1000
FCC0
FCC0
1040
3040
7C40
FE40
8F40
89C0
70C0
0040
0040
ENDCHAR
STARTCHAR char182
ENCODING 9515
SWIDTH 6000 0
DWIDTH 12 0
BBX 10 14 1 -1
BITMAP
7CC0
7DC0
0900
7F00
7F00
0800
0800
0E00
3780
E1C0
60C0
30C0
1980
0F00
ENDCHAR
STARTCHAR char183
ENCODING 9516
SWIDTH 6500 0
DWIDTH 13 0
BBX 12 15 1 -2
BITMAP
7F30
7F70
0840
7FC0
7F80
4000
4F00
FF80
C000
8000
FE00
FF00
C380
00C0
0020
ENDCHAR
STARTCHAR char184
ENCODING 9517
SWIDTH 5500 0
DWIDTH 11 0
BBX 10 21 1 -8
BITMAP
7F80
7F80
0800
FFC0
FFC0
66C0
C240
8240
FA40
FE40
0640
0240
0040
0040
0040
00C0
0140
0240
0140
00C0
0040
ENDCHAR
STARTCHAR char182
ENCODING 9518
SWIDTH 6000 0
DWIDTH 12 0
BBX 10 21 1 -8
BITMAP
7CC0
7DC0
0900
7F00
7F00
0800
0800
0E00
3780
E1C0
60C0
30C0
1980
0F80
0080
0180
0280
0480
0280
0180
0080
ENDCHAR
STARTCHAR char186
ENCODING 9520
SWIDTH 6500 0
DWIDTH 13 0
BBX 12 17 1 -4
BITMAP
3F80
3F80
0400
7FC0
7FC0
14C0
1440
3240
6240
0240
0040
0040
F080
4F10
2020
1FC0
0F80
ENDCHAR
STARTCHAR char187
ENCODING 9521
SWIDTH 6500 0
DWIDTH 13 0
BBX 12 18 1 -5
BITMAP
3F80
3F80
0400
FFC0
FFC0
66C0
C240
8240
FA40
FE40
0640
0240
C040
B890
4720
3040
1FC0
0F80
ENDCHAR
STARTCHAR char188
ENCODING 9522
SWIDTH 7000 0
DWIDTH 14 0
BBX 13 18 1 -5
BITMAP
FE00
FE00
1000
FE60
FE60
1020
7C20
FE20
CF20
85A0
CCE0
7860
0020
F048
4F90
2020
1FC0
0F80
ENDCHAR
STARTCHAR char189
ENCODING 9536
SWIDTH 6000 0
DWIDTH 12 0
BBX 10 19 1 -6
BITMAP
3CC0
7CC0
C440
8440
8440
C840
5E40
1F40
00C0
7FC0
7FC0
14C0
7640
E240
0240
0040
0040
0040
0040
ENDCHAR
STARTCHAR char190
ENCODING 9537
SWIDTH 6000 0
DWIDTH 12 0
BBX 10 19 1 -6
BITMAP
3CC0
7CC0
C440
8440
8440
C840
5F40
1FC0
00C0
FFC0
FFC0
46C0
C240
F240
FE40
0E40
0240
0040
0040
ENDCHAR
STARTCHAR char191
ENCODING 9538
SWIDTH 6000 0
DWIDTH 12 0
BBX 11 18 1 -5
BITMAP
3CC0
7CC0
C440
8440
8440
C840
5E40
1F40
00C0
7FC0
7FC0
3000
2000
4000
7F00
7F80
00C0
0020
ENDCHAR
STARTCHAR char192
ENCODING 9539
SWIDTH 6000 0
DWIDTH 12 0
BBX 11 19 1 -6
BITMAP
3CC0
7CC0
C440
8440
8440
C840
5E40
1F40
00C0
1F80
1F80
0400
0F00
FFC0
60E0
3060
1860
0CC0
0780
ENDCHAR
STARTCHAR char193
ENCODING 9540
SWIDTH 6500 0
DWIDTH 13 0
BBX 12 19 1 -6
BITMAP
3CC0
7CC0
CC40
8440
8440
C840
5E40
1F40
00C0
3FC0
3FC0
2000
2F80
7FC0
6000
4F00
7FC0
60E0
0010
ENDCHAR
STARTCHAR char194
ENCODING 9541
SWIDTH 6000 0
DWIDTH 12 0
BBX 10 21 1 -8
BITMAP
3CC0
7CC0
C440
8440
8440
C840
5E40
1F40
00C0
3FC0
3FC0
3000
3380
37C0
1FC0
19C0
10C0
0180
0100
0200
0400
ENDCHAR
STARTCHAR char195
ENCODING 9542
SWIDTH 6000 0
DWIDTH 12 0
BBX 11 21 1 -8
BITMAP
3C60
7C60
C460
8420
8420
C820
5F20
1FA0
0060
3FC0
3FC0
1000
2000
3F80
3FC0
00C0
0060
0020
0020
0020
0020
ENDCHAR
STARTCHAR char196
ENCODING 9543
SWIDTH 6000 0
DWIDTH 12 0
BBX 10 18 1 -5
BITMAP
3CC0
7CC0
C440
8440
8440
C840
5E40
1F40
00C0
7CC0
7CC0
2040
6040
6040
7C40
7F40
01C0
0040
ENDCHAR
STARTCHAR char196
ENCODING 9544
SWIDTH 6000 0
DWIDTH 12 0
BBX 10 18 1 -5
BITMAP
3CC0
7CC0
C440
8440
8440
C840
5E40
1F40
00C0
7FC0
7FC0
2040
6040
6040
7C40
7F40
01C0
0040
ENDCHAR
STARTCHAR char198
ENCODING 9545
SWIDTH 6000 0
DWIDTH 12 0
BBX 11 20 1 -7
BITMAP
3CC0
7CC0
CC40
8440
8440
C840
5E40
1F40
00C0
3F80
3F80
1000
23C0
3FE0
1C60
0660
0260
0040
0080
0100
ENDCHAR
STARTCHAR char199
ENCODING 9552
SWIDTH 5500 0
DWIDTH 11 0
BBX 9 19 1 -6
BITMAP
FD80
FD80
5C80
C680
F280
7980
0C80
0080
FF80
FF80
2980
6880
C880
0480
0480
0080
0080
0080
0080
ENDCHAR
STARTCHAR char200
ENCODING 9553
SWIDTH 5500 0
DWIDTH 11 0
BBX 10 19 1 -6
BITMAP
FCC0
FCC0
7C40
CE40
E340
F9C0
04C0
0040
FFC0
FFC0
46C0
C240
8240
FA40
FE40
0240
0040
0040
0040
ENDCHAR
STARTCHAR char201
ENCODING 9554
SWIDTH 6000 0
DWIDTH 12 0
BBX 11 17 1 -4
BITMAP
FCC0
FCC0
7C40
E640
F340
F9C0
04C0
0040
7FC0
7FC0
6000
4000
4000
7F00
7F80
00C0
0020
ENDCHAR
STARTCHAR char202
ENCODING 9555
SWIDTH 6000 0
DWIDTH 12 0
BBX 10 20 1 -7
BITMAP
FCC0
FCC0
4640
F340
F9C0
04C0
3C40
7E00
6600
C200
8700
EF80
79C0
10C0
1CC0
0CC0
0180
0100
0200
0400
ENDCHAR
STARTCHAR char203
ENCODING 9556
SWIDTH 6000 0
DWIDTH 12 0
BBX 10 19 1 -6
BITMAP
FCC0
FCC0
5C40
C640
F340
78C0
0440
7FC0
7FC0
6000
6000
2F00
3F80
39C0
10C0
00C0
0080
0100
0200
ENDCHAR
STARTCHAR char204
ENCODING 9557
SWIDTH 5500 0
DWIDTH 11 0
BBX 10 20 1 -7
BITMAP
FCC0
FCC0
5C40
E640
FB40
F8C0
0440
7F80
7F80
1000
2000
7E00
7F00
0380
0080
00C0
0040
0040
0040
0040
ENDCHAR
STARTCHAR char205
ENCODING 9558
SWIDTH 6000 0
DWIDTH 12 0
BBX 10 20 1 -7
BITMAP
FCC0
FCC0
5C40
E640
F340
39C0
04C0
7F40
7F00
0800
3C00
7E00
C700
8700
8500
7880
0080
0080
0080
0080
ENDCHAR
STARTCHAR char206
ENCODING 9559
SWIDTH 5500 0
DWIDTH 11 0
BBX 9 16 1 -3
BITMAP
FD80
FD80
7880
EE80
F380
F980
0480
F980
F980
6080
C080
F080
FC80
FE80
0180
0080
ENDCHAR
STARTCHAR char206
ENCODING 9560
SWIDTH 5500 0
DWIDTH 11 0
BBX 9 16 1 -3
BITMAP
FD80
FD80
7880
EE80
F380
F980
0480
FF80
FF80
6180
C080
F080
FC80
FE80
0180
0080
ENDCHAR
STARTCHAR char208
ENCODING 9561
SWIDTH 6000 0
DWIDTH 12 0
BBX 10 17 1 -4
BITMAP
FCC0
FCC0
7840
EE40
E3C0
F8C0
0440
FEC0
FEC0
1040
7C40
FE40
C740
87C0
C4C0
7840
0040
ENDCHAR
STARTCHAR char209
ENCODING 9562
SWIDTH 7000 0
DWIDTH 14 0
BBX 13 17 1 -4
BITMAP
FD80
FD80
5C80
E680
F398
79B8
04A0
1FC0
1FC0
0200
0700
0FC0
79E0
3070
1830
0C60
07C0
ENDCHAR
STARTCHAR char210
ENCODING 9568
SWIDTH 6500 0
DWIDTH 13 0
BBX 12 20 1 -7
BITMAP
FCC0
FCC0
4E40
E340
F940
0CC0
0040
FFC0
FFC0
28C0
6C40
C440
0240
0240
0040
F080
4F10
2020
1FC0
0F80
ENDCHAR
STARTCHAR char211
ENCODING 9569
SWIDTH 6500 0
DWIDTH 13 0
BBX 12 20 1 -7
BITMAP
FCC0
FCC0
4640
E340
F940
1CC0
0040
FFC0
FFC0
66C0
C240
C240
FE40
1E40
0240
F080
4F10
2020
1FC0
0F80
ENDCHAR
STARTCHAR char212
ENCODING 9570
SWIDTH 7000 0
DWIDTH 14 0
BBX 13 21 1 -8
BITMAP
7F60
7F60
3E20
7320
79E0
7C60
0220
7E60
7E60
2020
6020
7020
7E20
7FA0
0060
F020
4FC8
2010
1860
0FC0
0780
ENDCHAR
STARTCHAR char212
ENCODING 9571
SWIDTH 7000 0
DWIDTH 14 0
BBX 13 21 1 -8
BITMAP
7F60
7F60
3E20
7320
79E0
7C60
0220
7FE0
7FE0
2060
6020
7020
7E20
7FA0
0060
F020
4FC8
2010
1860
0FC0
0780
ENDCHAR
STARTCHAR char214
ENCODING 9572
SWIDTH 7000 0
DWIDTH 14 0
BBX 13 21 1 -8
BITMAP
7E60
7E60
3F20
71A0
78E0
7E60
0020
7F60
7F60
0820
3C20
FE20
8720
85A0
78E0
0020
F048
4F90
2020
1FC0
0F80
ENDCHAR
STARTCHAR char215
ENCODING 9584
SWIDTH 6000 0
DWIDTH 12 0
BBX 10 19 1 -6
BITMAP
7EC0
7EC0
3C40
7740
79C0
7CC0
0640
0240
7FC0
7FC0
14C0
7640
E240
0240
0040
3C40
7F40
01C0
0040
ENDCHAR
STARTCHAR char216
ENCODING 9585
SWIDTH 5500 0
DWIDTH 11 0
BBX 10 20 1 -7
BITMAP
FCC0
FCC0
7C40
EE40
F340
F8C0
0440
0040
FFC0
FFC0
66C0
C240
C240
FE40
FE40
0240
F840
FE40
01C0
0040
ENDCHAR
STARTCHAR char217
ENCODING 9586
SWIDTH 5500 0
DWIDTH 11 0
BBX 10 20 1 -7
BITMAP
FEC0
FEC0
7C40
E740
F9C0
FCC0
0240
7F80
7F80
0800
3E00
7F00
4780
4580
3880
00C0
3C40
7F40
00C0
0040
ENDCHAR
STARTCHAR char218
ENCODING 9587
SWIDTH 5500 0
DWIDTH 11 0
BBX 9 20 1 -7
BITMAP
FD80
FD80
7C80
E680
F280
F180
0980
0080
F980
F980
4080
C080
FC80
FE80
0180
7880
FC80
0680
0180
0080
ENDCHAR
STARTCHAR char218
ENCODING 9588
SWIDTH 5500 0
DWIDTH 11 0
BBX 9 20 1 -7
BITMAP
FD80
FD80
7C80
E680
F280
F180
0980
0080
FF80
FF80
4180
C080
FC80
FE80
0180
7880
FC80
0680
0180
0080
ENDCHAR
STARTCHAR char220
ENCODING 9589
SWIDTH 5500 0
DWIDTH 11 0
BBX 9 20 1 -7
BITMAP
FD80
FD80
7C80
E680
F380
F180
0880
FD80
FD80
3080
7880
FC80
9E80
9380
6180
0080
7880
FE80
0380
0080
ENDCHAR
ENDFONT
